<svg xmlns="http://www.w3.org/2000/svg" xmlns:xlink="http://www.w3.org/1999/xlink" width="500" zoomAndPan="magnify" viewBox="0 0 375 374.999991" height="500" preserveAspectRatio="xMidYMid meet" version="1.0"><defs><clipPath id="2604bfcdd2"><path d="M 13 73.359375 L 51 73.359375 L 51 111 L 13 111 Z M 13 73.359375 " clip-rule="nonzero"/></clipPath><clipPath id="05e6f7675a"><path d="M 13 73.359375 L 51 73.359375 L 51 112 L 13 112 Z M 13 73.359375 " clip-rule="nonzero"/></clipPath><clipPath id="7ab94a14ee"><path d="M 63 289 L 100 289 L 100 301.359375 L 63 301.359375 Z M 63 289 " clip-rule="nonzero"/></clipPath></defs><path fill="#ffffff" d="M 183.179688 105.136719 L 167.851562 105.136719 C 167.132812 105 166.386719 104.917969 165.628906 104.917969 C 161.4375 104.917969 157.105469 106.699219 150.78125 110.136719 C 148.496094 111.378906 145.957031 112.832031 143.066406 114.503906 C 142.703125 114.710938 142.320312 114.929688 141.921875 115.164062 C 146.289062 107.84375 152.988281 97.5 163.269531 82.949219 C 165.777344 79.402344 157.832031 72.078125 151.347656 69.417969 C 156.359375 63.640625 162.34375 63.847656 162.738281 63.871094 C 164.683594 64.003906 166.429688 62.523438 166.578125 60.542969 C 166.730469 58.558594 165.242188 56.820312 163.257812 56.667969 C 157.34375 56.226562 144.847656 59.738281 139.679688 76.273438 C 139.664062 76.324219 139.660156 76.375 139.648438 76.425781 C 128.71875 92.191406 121.132812 104.296875 116.542969 113.285156 C 113.269531 119.703125 106.460938 133.050781 114.523438 141.90625 C 117.621094 145.300781 121.230469 146.691406 125.269531 146.691406 C 130.636719 146.691406 136.769531 144.230469 143.4375 140.757812 C 147.011719 138.894531 150.742188 136.746094 154.597656 134.519531 C 154.617188 134.507812 154.640625 134.492188 154.660156 134.480469 L 154.660156 356.609375 C 154.660156 366.472656 162.648438 374.464844 172.496094 374.464844 C 182.347656 374.464844 190.332031 366.472656 190.332031 356.609375 L 190.332031 226.234375 L 197.019531 226.234375 L 197.019531 356.609375 C 197.019531 366.472656 205.007812 374.464844 214.855469 374.464844 C 224.703125 374.464844 232.691406 366.472656 232.691406 356.609375 L 232.691406 139.933594 C 239.140625 153.359375 244.886719 180.414062 241.917969 231.160156 C 241.589844 236.78125 245.339844 241.695312 250.597656 243.03125 L 250.597656 248.738281 L 240.617188 248.738281 L 240.617188 306.988281 L 267.066406 306.988281 L 267.066406 248.738281 L 257.085938 248.738281 L 257.085938 242.789062 C 261.429688 241.335938 264.675781 237.367188 264.960938 232.507812 C 268.527344 171.496094 260.902344 131.6875 242.304688 114.191406 C 234.210938 106.578125 226.300781 105.269531 222.242188 105.171875 C 222.007812 105.15625 221.777344 105.136719 221.542969 105.136719 L 213.546875 105.136719 C 208.933594 107.308594 203.789062 108.535156 198.363281 108.535156 C 192.9375 108.535156 187.792969 107.3125 183.179688 105.136719 Z M 193.675781 212.269531 L 179.972656 194.9375 L 187.867188 136.707031 C 189.738281 137.40625 191.707031 137.773438 193.675781 137.773438 L 193.679688 137.773438 C 193.679688 137.773438 193.683594 137.773438 193.6875 137.773438 C 195.652344 137.773438 197.617188 137.40625 199.488281 136.703125 L 207.382812 194.9375 Z M 201.898438 129.949219 L 201.484375 130.605469 C 199.222656 132.492188 196.457031 133.4375 193.675781 133.441406 C 190.894531 133.4375 188.132812 132.496094 185.875 130.613281 L 185.453125 129.949219 L 188.195312 119.117188 L 199.15625 119.117188 Z M 201.898438 129.949219 " fill-opacity="1" fill-rule="nonzero"/><path fill="#ffffff" d="M 169.886719 60.792969 C 169.714844 63.082031 168.414062 65.046875 166.566406 66.175781 C 166.136719 68.289062 165.910156 70.476562 165.910156 72.71875 C 165.910156 74.691406 166.09375 76.621094 166.429688 78.496094 C 166.546875 78.777344 166.671875 79.0625 166.753906 79.339844 C 166.933594 79.960938 167.003906 80.570312 167.023438 81.171875 C 170.742188 95.015625 183.363281 105.210938 198.367188 105.210938 C 216.292969 105.210938 230.824219 90.664062 230.824219 72.714844 C 230.824219 54.769531 216.292969 40.222656 198.367188 40.222656 C 185.769531 40.222656 174.859375 47.410156 169.476562 57.90625 C 169.804688 58.804688 169.964844 59.78125 169.886719 60.792969 Z M 212.453125 58.703125 C 215.242188 58.703125 217.503906 60.964844 217.503906 63.757812 C 217.503906 66.550781 215.242188 68.8125 212.453125 68.8125 C 209.664062 68.8125 207.40625 66.550781 207.40625 63.757812 C 207.40625 60.964844 209.664062 58.703125 212.453125 58.703125 Z M 191.808594 64.179688 C 195.144531 64.179688 197.847656 66.886719 197.847656 70.226562 C 197.847656 73.570312 195.144531 76.277344 191.808594 76.277344 C 188.472656 76.277344 185.765625 73.570312 185.765625 70.226562 C 185.765625 66.886719 188.472656 64.179688 191.808594 64.179688 Z M 191.808594 64.179688 " fill-opacity="1" fill-rule="nonzero"/><path fill="#ffffff" d="M 160.921875 53.171875 C 160.929688 53.15625 161.855469 51.296875 163.699219 50.703125 C 164.878906 50.324219 166.226562 50.527344 167.695312 51.316406 C 168.152344 51.558594 168.710938 51.386719 168.953125 50.933594 C 169.195312 50.480469 169.023438 49.917969 168.570312 49.675781 C 166.628906 48.636719 164.789062 48.390625 163.105469 48.941406 C 160.503906 49.792969 159.296875 52.261719 159.246094 52.367188 C 159.046875 52.777344 159.195312 53.25 159.550781 53.503906 C 159.960938 53.453125 160.371094 53.398438 160.769531 53.371094 C 160.828125 53.308594 160.882812 53.25 160.921875 53.171875 Z M 160.921875 53.171875 " fill-opacity="1" fill-rule="nonzero"/><path fill="#ffffff" d="M 162.082031 44.398438 C 158.25 45.460938 156.335938 48.894531 156.257812 49.042969 C 156.011719 49.492188 156.175781 50.054688 156.625 50.300781 C 156.667969 50.324219 156.714844 50.34375 156.761719 50.363281 C 157.179688 50.511719 157.660156 50.339844 157.882812 49.9375 C 157.898438 49.90625 159.523438 47.03125 162.59375 46.1875 C 164.605469 45.636719 166.828125 46.058594 169.207031 47.453125 C 169.644531 47.707031 170.214844 47.5625 170.476562 47.121094 C 170.734375 46.675781 170.585938 46.109375 170.144531 45.847656 C 167.3125 44.191406 164.597656 43.699219 162.082031 44.398438 Z M 162.082031 44.398438 " fill-opacity="1" fill-rule="nonzero"/><path fill="#ffffff" d="M 221.285156 22.902344 C 222.074219 19.59375 222.757812 19.089844 226.113281 17.734375 C 230.3125 16.066406 232.308594 13.921875 233.171875 10.328125 C 233.972656 6.972656 232.691406 2.65625 226.332031 1.132812 C 223.269531 0.398438 219.699219 0.523438 217.527344 1.027344 L 215.957031 7.589844 L 220.574219 9.109375 L 221.269531 6.191406 C 221.445312 5.464844 221.621094 5.144531 222.238281 5.140625 C 222.96875 5.109375 223.839844 5.316406 224.8125 5.550781 C 226.753906 6.015625 228.027344 7.347656 227.492188 9.585938 C 226.820312 12.40625 224.984375 12.996094 222.523438 14.050781 C 219.101562 15.492188 217.394531 16.625 216.804688 20.59375 L 216.269531 24.324219 L 220.6875 25.382812 Z M 221.285156 22.902344 " fill-opacity="1" fill-rule="nonzero"/><path fill="#ffffff" d="M 213.886719 30.226562 C 213.445312 32.074219 214.320312 33.777344 216.460938 34.289062 C 218.546875 34.789062 220.132812 33.523438 220.539062 31.820312 C 220.96875 30.023438 220.03125 28.359375 217.894531 27.847656 C 216 27.394531 214.28125 28.574219 213.886719 30.226562 Z M 213.886719 30.226562 " fill-opacity="1" fill-rule="nonzero"/><path fill="#ffffff" d="M 233.75 34.984375 C 233.308594 36.832031 234.183594 38.53125 236.320312 39.042969 C 238.40625 39.542969 239.996094 38.28125 240.402344 36.574219 C 240.832031 34.777344 239.894531 33.113281 237.757812 32.601562 C 235.863281 32.148438 234.140625 33.332031 233.75 34.984375 Z M 233.75 34.984375 " fill-opacity="1" fill-rule="nonzero"/><path fill="#ffffff" d="M 241.144531 27.65625 C 241.933594 24.351562 242.621094 23.847656 245.972656 22.492188 C 250.171875 20.824219 252.171875 18.679688 253.03125 15.082031 C 253.832031 11.726562 252.554688 7.414062 246.195312 5.890625 C 243.132812 5.15625 239.5625 5.277344 237.386719 5.785156 L 235.820312 12.347656 L 240.4375 13.867188 L 241.132812 10.949219 C 241.308594 10.21875 241.484375 9.902344 242.101562 9.898438 C 242.828125 9.863281 243.703125 10.074219 244.675781 10.304688 C 246.617188 10.769531 247.890625 12.105469 247.355469 14.34375 C 246.679688 17.160156 244.847656 17.75 242.386719 18.804688 C 238.964844 20.246094 237.253906 21.378906 236.664062 25.351562 L 236.132812 29.078125 L 240.550781 30.136719 Z M 241.144531 27.65625 " fill-opacity="1" fill-rule="nonzero"/><path fill="#0b132b" d="M 330.609375 161.667969 C 330.097656 160.902344 330.308594 159.867188 331.074219 159.359375 C 340.589844 153.019531 347.121094 151.929688 351.023438 151.277344 C 352.0625 151.101562 352.957031 150.953125 353.605469 150.75 C 366.679688 146.664062 368.894531 137.109375 369.625 133.96875 C 369.710938 133.601562 369.777344 133.3125 369.851562 133.074219 C 371.007812 129.304688 370.277344 124.445312 366.03125 122.09375 C 361.828125 119.761719 356.511719 121.285156 354.183594 125.484375 C 353.328125 127.019531 352.960938 128.75 353.121094 130.496094 C 353.203125 131.410156 352.527344 132.21875 351.609375 132.304688 C 350.695312 132.390625 349.886719 131.714844 349.804688 130.796875 C 349.582031 128.386719 350.089844 125.992188 351.269531 123.871094 C 354.488281 118.066406 361.839844 115.960938 367.648438 119.183594 C 372.65625 121.957031 374.871094 128.070312 373.035156 134.050781 C 373 134.175781 372.933594 134.441406 372.871094 134.71875 C 372.035156 138.316406 369.496094 149.269531 354.601562 153.925781 C 353.730469 154.199219 352.730469 154.367188 351.570312 154.5625 C 347.703125 155.207031 342.785156 155.9375 332.605469 161.3125 C 332.304688 161.46875 330.929688 162.148438 330.609375 161.667969 " fill-opacity="1" fill-rule="nonzero"/><path fill="#0b132b" d="M 330.609375 161.667969 L 331.085938 161.347656 C 330.960938 161.160156 330.90625 160.957031 330.902344 160.746094 C 330.90625 160.394531 331.074219 160.046875 331.390625 159.835938 C 340.84375 153.550781 347.226562 152.496094 351.121094 151.84375 C 352.15625 151.667969 353.066406 151.523438 353.777344 151.300781 C 360.429688 149.226562 364.378906 145.722656 366.71875 142.332031 C 369.0625 138.949219 369.820312 135.679688 370.183594 134.097656 C 370.273438 133.730469 370.335938 133.445312 370.398438 133.238281 L 370.398438 133.246094 C 370.734375 132.15625 370.917969 130.980469 370.917969 129.800781 C 370.917969 128.234375 370.59375 126.640625 369.855469 125.207031 C 369.113281 123.769531 367.949219 122.5 366.308594 121.589844 C 364.886719 120.800781 363.34375 120.425781 361.816406 120.425781 C 358.550781 120.425781 355.371094 122.152344 353.675781 125.207031 C 352.90625 126.589844 352.507812 128.132812 352.507812 129.703125 C 352.507812 129.984375 352.519531 130.265625 352.546875 130.550781 L 352.550781 130.652344 C 352.550781 131.203125 352.125 131.679688 351.5625 131.730469 L 351.457031 131.734375 C 350.902344 131.738281 350.425781 131.308594 350.375 130.746094 C 350.34375 130.394531 350.332031 130.042969 350.328125 129.691406 C 350.332031 127.757812 350.816406 125.863281 351.769531 124.148438 C 353.863281 120.378906 357.785156 118.253906 361.824219 118.246094 C 363.707031 118.253906 365.613281 118.710938 367.367188 119.6875 C 371 121.699219 373.09375 125.566406 373.097656 129.851562 C 373.097656 131.175781 372.898438 132.527344 372.484375 133.882812 C 372.433594 134.050781 372.375 134.304688 372.308594 134.589844 C 371.894531 136.378906 371.070312 139.925781 368.535156 143.597656 C 365.996094 147.273438 361.761719 151.082031 354.429688 153.378906 C 353.617188 153.632812 352.636719 153.800781 351.476562 153.996094 C 347.601562 154.636719 342.550781 155.402344 332.335938 160.804688 C 332.242188 160.855469 331.992188 160.980469 331.722656 161.082031 C 331.457031 161.191406 331.148438 161.269531 331.023438 161.261719 L 330.980469 161.257812 L 330.910156 161.46875 L 331.09375 161.351562 L 330.980469 161.257812 L 330.910156 161.46875 L 331.09375 161.351562 L 331.085938 161.347656 L 330.609375 161.667969 L 330.128906 161.988281 C 330.242188 162.160156 330.410156 162.273438 330.570312 162.339844 C 330.730469 162.398438 330.878906 162.414062 331.023438 162.414062 C 331.429688 162.410156 331.804688 162.285156 332.140625 162.160156 C 332.472656 162.027344 332.75 161.886719 332.875 161.820312 C 343.015625 156.472656 347.800781 155.78125 351.664062 155.128906 C 352.828125 154.933594 353.847656 154.769531 354.773438 154.480469 C 362.332031 152.113281 366.820312 148.121094 369.484375 144.25 C 372.152344 140.390625 373.011719 136.660156 373.429688 134.851562 C 373.5 134.574219 373.5625 134.296875 373.589844 134.214844 L 373.589844 134.21875 C 374.035156 132.757812 374.25 131.289062 374.25 129.851562 C 374.253906 125.191406 371.953125 120.910156 367.925781 118.679688 C 365.996094 117.609375 363.894531 117.097656 361.824219 117.101562 C 357.382812 117.097656 353.066406 119.441406 350.757812 123.589844 C 349.71875 125.472656 349.175781 127.5625 349.179688 129.691406 C 349.175781 130.078125 349.195312 130.464844 349.234375 130.851562 L 349.234375 130.847656 C 349.332031 132.011719 350.308594 132.882812 351.457031 132.882812 L 351.664062 132.875 C 352.828125 132.769531 353.703125 131.800781 353.703125 130.652344 L 353.695312 130.441406 C 353.671875 130.195312 353.660156 129.949219 353.660156 129.703125 C 353.660156 128.328125 354.007812 126.984375 354.6875 125.765625 C 356.167969 123.085938 358.953125 121.578125 361.816406 121.578125 C 363.152344 121.578125 364.5 121.90625 365.75 122.597656 C 367.191406 123.398438 368.183594 124.488281 368.828125 125.738281 C 369.472656 126.984375 369.765625 128.390625 369.765625 129.800781 C 369.765625 130.859375 369.597656 131.925781 369.296875 132.90625 C 369.214844 133.175781 369.148438 133.46875 369.0625 133.839844 C 368.703125 135.398438 367.984375 138.476562 365.769531 141.679688 C 363.554688 144.871094 359.855469 148.191406 353.433594 150.203125 C 352.847656 150.386719 351.964844 150.535156 350.925781 150.707031 C 347.011719 151.359375 340.335938 152.488281 330.75 158.878906 C 330.105469 159.3125 329.75 160.027344 329.753906 160.746094 C 329.75 161.171875 329.875 161.609375 330.132812 161.988281 L 330.128906 161.988281 L 330.609375 161.667969 " fill-opacity="1" fill-rule="nonzero"/><path fill="#0b132b" d="M 304.519531 161.667969 C 305.027344 160.902344 304.820312 159.867188 304.054688 159.359375 C 294.535156 153.019531 288.011719 151.929688 284.109375 151.277344 C 283.070312 151.101562 282.171875 150.953125 281.523438 150.75 C 268.449219 146.664062 266.234375 137.109375 265.503906 133.96875 C 265.417969 133.601562 265.351562 133.3125 265.28125 133.074219 C 264.128906 129.304688 264.851562 124.445312 269.097656 122.09375 C 273.300781 119.761719 278.621094 121.285156 280.949219 125.484375 C 281.804688 127.019531 282.167969 128.75 282.007812 130.496094 C 281.925781 131.410156 282.601562 132.21875 283.515625 132.304688 C 284.433594 132.390625 285.246094 131.714844 285.324219 130.796875 C 285.550781 128.386719 285.042969 125.992188 283.863281 123.871094 C 280.640625 118.066406 273.292969 115.960938 267.480469 119.183594 C 262.472656 121.957031 260.257812 128.070312 262.097656 134.050781 C 262.132812 134.175781 262.195312 134.441406 262.257812 134.71875 C 263.089844 138.316406 265.632812 149.269531 280.527344 153.925781 C 281.394531 154.199219 282.394531 154.367188 283.554688 154.5625 C 287.429688 155.207031 292.347656 155.9375 302.519531 161.3125 C 302.828125 161.46875 304.195312 162.148438 304.519531 161.667969 " fill-opacity="1" fill-rule="nonzero"/><path fill="#0b132b" d="M 304.519531 161.667969 L 305.003906 161.988281 C 305.253906 161.609375 305.375 161.171875 305.375 160.746094 C 305.375 160.027344 305.023438 159.3125 304.375 158.878906 C 294.792969 152.488281 288.117188 151.359375 284.203125 150.710938 C 283.164062 150.535156 282.28125 150.386719 281.699219 150.203125 C 275.273438 148.191406 271.574219 144.871094 269.359375 141.679688 C 267.144531 138.476562 266.429688 135.398438 266.066406 133.839844 C 265.976562 133.46875 265.910156 133.175781 265.828125 132.90625 C 265.53125 131.925781 265.367188 130.863281 265.367188 129.804688 C 265.367188 128.394531 265.660156 126.984375 266.296875 125.738281 C 266.945312 124.488281 267.9375 123.398438 269.378906 122.597656 C 270.625 121.90625 271.976562 121.578125 273.308594 121.578125 C 276.179688 121.578125 278.957031 123.085938 280.445312 125.765625 C 281.121094 126.980469 281.464844 128.328125 281.46875 129.699219 C 281.464844 129.941406 281.457031 130.195312 281.433594 130.445312 L 281.425781 130.648438 C 281.425781 131.796875 282.300781 132.769531 283.460938 132.875 L 283.671875 132.882812 C 284.820312 132.882812 285.792969 132.011719 285.902344 130.851562 C 285.9375 130.464844 285.953125 130.078125 285.953125 129.695312 C 285.953125 127.5625 285.410156 125.472656 284.367188 123.589844 C 282.058594 119.441406 277.746094 117.097656 273.304688 117.101562 C 271.234375 117.097656 269.136719 117.609375 267.203125 118.679688 C 263.171875 120.910156 260.875 125.191406 260.875 129.851562 C 260.875 131.289062 261.097656 132.757812 261.542969 134.21875 C 261.570312 134.296875 261.632812 134.570312 261.695312 134.851562 C 262.117188 136.660156 262.980469 140.390625 265.644531 144.25 C 268.3125 148.121094 272.792969 152.113281 280.359375 154.480469 C 281.28125 154.769531 282.300781 154.933594 283.460938 155.128906 C 287.328125 155.78125 292.113281 156.472656 302.253906 161.820312 C 302.382812 161.886719 302.65625 162.027344 302.988281 162.160156 C 303.320312 162.285156 303.695312 162.410156 304.105469 162.414062 C 304.246094 162.414062 304.398438 162.398438 304.554688 162.339844 C 304.714844 162.28125 304.886719 162.164062 304.996094 161.992188 L 305.003906 161.988281 L 304.519531 161.667969 L 304.046875 161.34375 L 304.222656 161.464844 L 304.140625 161.261719 L 304.046875 161.34375 L 304.222656 161.464844 L 304.140625 161.261719 L 304.167969 161.324219 L 304.152344 161.257812 L 304.140625 161.261719 L 304.167969 161.324219 L 304.152344 161.257812 L 304.105469 161.261719 C 303.980469 161.269531 303.671875 161.191406 303.40625 161.082031 C 303.136719 160.980469 302.890625 160.855469 302.789062 160.800781 C 292.582031 155.402344 287.527344 154.636719 283.648438 153.996094 C 282.492188 153.800781 281.511719 153.632812 280.703125 153.378906 C 273.367188 151.082031 269.136719 147.273438 266.59375 143.597656 C 264.058594 139.925781 263.234375 136.378906 262.820312 134.589844 C 262.753906 134.304688 262.699219 134.050781 262.644531 133.878906 L 262.644531 133.882812 C 262.226562 132.527344 262.027344 131.171875 262.027344 129.851562 C 262.03125 125.566406 264.128906 121.699219 267.761719 119.6875 C 269.519531 118.710938 271.421875 118.253906 273.304688 118.246094 C 277.34375 118.253906 281.269531 120.378906 283.359375 124.148438 C 284.308594 125.863281 284.796875 127.761719 284.796875 129.695312 C 284.796875 130.042969 284.785156 130.398438 284.753906 130.746094 C 284.699219 131.308594 284.222656 131.738281 283.671875 131.734375 L 283.570312 131.730469 C 283 131.679688 282.578125 131.203125 282.578125 130.648438 L 282.582031 130.550781 C 282.609375 130.261719 282.617188 129.980469 282.617188 129.699219 C 282.625 128.128906 282.222656 126.589844 281.453125 125.203125 C 279.753906 122.152344 276.578125 120.425781 273.308594 120.425781 C 271.789062 120.425781 270.238281 120.800781 268.820312 121.589844 C 267.179688 122.5 266.015625 123.769531 265.277344 125.210938 C 264.53125 126.644531 264.210938 128.238281 264.210938 129.804688 C 264.210938 130.988281 264.398438 132.15625 264.730469 133.246094 C 264.792969 133.445312 264.855469 133.730469 264.941406 134.097656 C 265.3125 135.679688 266.066406 138.949219 268.410156 142.332031 C 270.75 145.722656 274.703125 149.226562 281.351562 151.300781 C 282.066406 151.523438 282.976562 151.667969 284.015625 151.84375 C 287.902344 152.496094 294.285156 153.550781 303.738281 159.835938 C 304.050781 160.046875 304.222656 160.394531 304.222656 160.746094 C 304.222656 160.957031 304.164062 161.164062 304.042969 161.347656 L 304.519531 161.667969 L 304.046875 161.34375 L 304.519531 161.667969 " fill-opacity="1" fill-rule="nonzero"/><path fill="#ffffff" d="M 279.714844 110.113281 C 279.714844 110.113281 279.449219 116.9375 279.449219 120.527344 C 279.449219 142.339844 293.035156 160.472656 310.933594 164.167969 L 310.933594 200.375 L 323.894531 200.375 L 323.894531 164.277344 C 342.0625 160.839844 355.929688 142.558594 355.929688 120.527344 C 355.929688 116.9375 356.070312 110.113281 356.070312 110.113281 L 279.714844 110.113281 " fill-opacity="1" fill-rule="nonzero"/><path fill="#0b132b" d="M 279.714844 110.113281 L 279.136719 110.089844 C 279.136719 110.097656 278.871094 116.917969 278.871094 120.527344 C 278.871094 142.570312 292.597656 160.957031 310.816406 164.734375 L 310.933594 164.167969 L 310.355469 164.167969 L 310.355469 200.375 C 310.355469 200.527344 310.414062 200.671875 310.527344 200.777344 C 310.636719 200.886719 310.78125 200.949219 310.933594 200.949219 L 323.894531 200.949219 C 324.046875 200.949219 324.191406 200.886719 324.300781 200.777344 C 324.410156 200.671875 324.472656 200.527344 324.472656 200.375 L 324.472656 164.277344 L 323.894531 164.277344 L 324 164.84375 C 342.496094 161.332031 356.507812 142.796875 356.507812 120.527344 C 356.507812 118.742188 356.542969 116.136719 356.574219 113.984375 C 356.609375 111.828125 356.640625 110.128906 356.640625 110.125 C 356.644531 109.972656 356.585938 109.816406 356.480469 109.710938 C 356.371094 109.597656 356.222656 109.539062 356.070312 109.539062 L 279.714844 109.539062 C 279.402344 109.539062 279.152344 109.78125 279.136719 110.089844 L 279.714844 110.113281 L 279.714844 110.691406 L 356.070312 110.691406 L 356.070312 110.113281 L 355.492188 110.101562 C 355.492188 110.101562 355.351562 116.929688 355.351562 120.527344 C 355.359375 142.324219 341.628906 160.34375 323.785156 163.710938 C 323.511719 163.765625 323.320312 164.003906 323.320312 164.277344 L 323.320312 199.796875 L 311.511719 199.796875 L 311.511719 164.167969 C 311.511719 163.898438 311.316406 163.660156 311.050781 163.605469 C 293.46875 159.980469 280.023438 142.105469 280.023438 120.527344 C 280.023438 118.746094 280.09375 116.148438 280.160156 113.992188 C 280.222656 111.839844 280.289062 110.136719 280.289062 110.132812 L 279.714844 110.113281 L 279.714844 110.691406 L 279.714844 110.113281 " fill-opacity="1" fill-rule="nonzero"/><path fill="#0b132b" d="M 324.921875 168.355469 C 324.921875 168.929688 324.511719 169.390625 324.003906 169.390625 L 310.019531 169.390625 C 309.515625 169.390625 309.105469 168.929688 309.105469 168.355469 L 309.105469 165 C 309.105469 164.429688 309.515625 163.964844 310.019531 163.964844 L 324.003906 163.964844 C 324.511719 163.964844 324.921875 164.429688 324.921875 165 L 324.921875 168.355469 " fill-opacity="1" fill-rule="nonzero"/><path fill="#0b132b" d="M 324.921875 168.355469 L 324.34375 168.355469 C 324.34375 168.503906 324.292969 168.632812 324.222656 168.707031 L 324.003906 168.816406 L 310.019531 168.816406 L 309.804688 168.707031 C 309.734375 168.625 309.679688 168.503906 309.679688 168.355469 L 309.679688 165 C 309.679688 164.855469 309.734375 164.730469 309.804688 164.648438 L 310.019531 164.542969 L 324.003906 164.542969 L 324.222656 164.648438 C 324.292969 164.730469 324.34375 164.851562 324.34375 165 L 324.34375 168.355469 L 325.5 168.355469 L 325.5 165 C 325.5 164.578125 325.34375 164.183594 325.082031 163.890625 C 324.828125 163.59375 324.441406 163.390625 324.003906 163.390625 L 310.019531 163.390625 C 309.585938 163.390625 309.199219 163.59375 308.941406 163.890625 C 308.675781 164.183594 308.527344 164.578125 308.527344 165 L 308.527344 168.355469 C 308.527344 168.785156 308.675781 169.175781 308.941406 169.472656 C 309.199219 169.765625 309.585938 169.96875 310.019531 169.96875 L 324.003906 169.96875 C 324.433594 169.96875 324.828125 169.765625 325.082031 169.472656 C 325.34375 169.175781 325.5 168.785156 325.5 168.355469 L 324.921875 168.355469 " fill-opacity="1" fill-rule="nonzero"/><path fill="#0b132b" d="M 340.929688 205.082031 L 337.0625 205.082031 L 337.0625 196.605469 C 337.0625 195.753906 336.417969 195.0625 335.621094 195.0625 L 299.628906 195.0625 C 298.832031 195.0625 298.1875 195.753906 298.1875 196.605469 L 298.1875 205.082031 L 293.894531 205.082031 C 293.171875 205.082031 292.582031 205.777344 292.582031 206.625 L 292.582031 219.476562 C 292.582031 220.332031 293.171875 221.019531 293.894531 221.019531 L 340.929688 221.019531 C 341.65625 221.019531 342.246094 220.332031 342.246094 219.476562 L 342.246094 206.625 C 342.246094 205.777344 341.65625 205.082031 340.929688 205.082031 " fill-opacity="1" fill-rule="nonzero"/><path fill="#0b132b" d="M 340.929688 205.082031 L 340.929688 204.507812 L 337.640625 204.507812 L 337.640625 196.605469 C 337.640625 196.035156 337.425781 195.507812 337.0625 195.121094 C 336.707031 194.738281 336.191406 194.484375 335.621094 194.484375 L 299.628906 194.484375 C 299.0625 194.484375 298.546875 194.738281 298.1875 195.121094 C 297.832031 195.507812 297.613281 196.035156 297.613281 196.605469 L 297.613281 204.507812 L 293.894531 204.507812 C 293.347656 204.507812 292.855469 204.777344 292.527344 205.164062 C 292.195312 205.550781 292.003906 206.070312 292.003906 206.625 L 292.003906 219.476562 C 292.003906 220.039062 292.195312 220.550781 292.527344 220.945312 C 292.855469 221.332031 293.347656 221.601562 293.894531 221.597656 L 340.929688 221.597656 C 341.476562 221.601562 341.96875 221.332031 342.296875 220.945312 C 342.628906 220.550781 342.824219 220.039062 342.824219 219.476562 L 342.824219 206.625 C 342.824219 206.070312 342.628906 205.550781 342.296875 205.164062 C 341.96875 204.777344 341.476562 204.507812 340.929688 204.507812 L 340.929688 205.660156 C 341.101562 205.664062 341.273438 205.742188 341.421875 205.910156 C 341.566406 206.078125 341.671875 206.335938 341.671875 206.625 L 341.671875 219.476562 C 341.671875 219.769531 341.566406 220.027344 341.421875 220.199219 C 341.273438 220.367188 341.101562 220.445312 340.929688 220.445312 L 293.894531 220.445312 C 293.71875 220.445312 293.554688 220.367188 293.40625 220.199219 C 293.261719 220.027344 293.15625 219.769531 293.15625 219.476562 L 293.15625 206.625 C 293.15625 206.335938 293.261719 206.078125 293.40625 205.910156 C 293.554688 205.742188 293.71875 205.664062 293.894531 205.660156 L 298.1875 205.660156 C 298.347656 205.660156 298.488281 205.601562 298.597656 205.492188 C 298.707031 205.386719 298.765625 205.242188 298.765625 205.082031 L 298.765625 196.605469 C 298.765625 196.324219 298.871094 196.078125 299.035156 195.90625 C 299.195312 195.730469 299.398438 195.636719 299.628906 195.636719 L 335.621094 195.636719 C 335.851562 195.636719 336.058594 195.730469 336.222656 195.90625 C 336.382812 196.078125 336.488281 196.324219 336.488281 196.605469 L 336.488281 205.082031 C 336.488281 205.242188 336.546875 205.386719 336.660156 205.492188 C 336.765625 205.601562 336.910156 205.660156 337.0625 205.660156 L 340.929688 205.660156 L 340.929688 205.082031 " fill-opacity="1" fill-rule="nonzero"/><path fill="#ffffff" d="M 330.746094 214.542969 C 330.746094 215.191406 330.222656 215.710938 329.574219 215.710938 L 304.449219 215.710938 C 303.808594 215.710938 303.28125 215.191406 303.28125 214.542969 L 303.28125 201.742188 C 303.28125 201.09375 303.808594 200.570312 304.449219 200.570312 L 329.574219 200.570312 C 330.222656 200.570312 330.746094 201.09375 330.746094 201.742188 L 330.746094 214.542969 " fill-opacity="1" fill-rule="nonzero"/><path fill="#0b132b" d="M 330.746094 214.542969 L 330.167969 214.542969 C 330.167969 214.871094 329.902344 215.136719 329.574219 215.136719 L 304.449219 215.136719 C 304.125 215.136719 303.859375 214.871094 303.859375 214.542969 L 303.859375 201.742188 C 303.859375 201.414062 304.128906 201.148438 304.449219 201.148438 L 329.574219 201.148438 C 329.902344 201.148438 330.167969 201.414062 330.167969 201.742188 L 330.167969 214.542969 L 331.320312 214.542969 L 331.320312 201.742188 C 331.320312 200.777344 330.542969 199.996094 329.574219 199.996094 L 304.449219 199.996094 C 303.484375 199.996094 302.707031 200.777344 302.707031 201.742188 L 302.707031 214.542969 C 302.707031 215.511719 303.488281 216.289062 304.449219 216.289062 L 329.574219 216.289062 C 330.539062 216.285156 331.320312 215.503906 331.320312 214.542969 L 330.746094 214.542969 " fill-opacity="1" fill-rule="nonzero"/><path fill="#0b132b" d="M 14.667969 282.683594 C 14.667969 282.683594 14.992188 289.59375 23.425781 294.40625 C 24.414062 294.972656 23.992188 298.21875 20.371094 297.425781 C 19.226562 297.171875 14.445312 296.664062 14.445312 296.664062 L 0.75 286.738281 L 3.96875 280.726562 L 14.667969 282.683594 " fill-opacity="1" fill-rule="nonzero"/><path fill="#0b132b" d="M 14.667969 282.683594 L 14.09375 282.710938 C 14.097656 282.765625 14.1875 284.570312 15.367188 286.996094 C 16.542969 289.414062 18.820312 292.445312 23.140625 294.90625 L 23.238281 295.042969 C 23.28125 295.136719 23.3125 295.273438 23.3125 295.433594 C 23.3125 295.761719 23.1875 296.152344 22.902344 296.441406 C 22.617188 296.734375 22.1875 296.964844 21.429688 296.972656 C 21.160156 296.972656 20.84375 296.941406 20.492188 296.863281 C 19.863281 296.722656 18.394531 296.539062 17.046875 296.378906 C 15.707031 296.21875 14.503906 296.089844 14.503906 296.089844 L 14.445312 296.664062 L 14.78125 296.199219 L 1.496094 286.566406 L 4.28125 281.371094 L 14.566406 283.25 L 14.667969 282.683594 L 14.09375 282.710938 L 14.667969 282.683594 L 14.773438 282.117188 L 4.074219 280.160156 C 3.824219 280.117188 3.582031 280.238281 3.460938 280.457031 L 0.238281 286.464844 C 0.105469 286.71875 0.175781 287.035156 0.410156 287.199219 L 14.101562 297.128906 L 14.382812 297.238281 C 14.386719 297.238281 15.574219 297.363281 16.90625 297.523438 C 18.238281 297.675781 19.734375 297.875 20.246094 297.988281 C 20.671875 298.078125 21.066406 298.121094 21.429688 298.121094 C 22.4375 298.128906 23.230469 297.773438 23.734375 297.238281 C 24.246094 296.707031 24.460938 296.039062 24.464844 295.433594 C 24.464844 295.136719 24.410156 294.84375 24.292969 294.578125 C 24.175781 294.316406 23.992188 294.070312 23.710938 293.90625 C 19.597656 291.558594 17.496094 288.726562 16.402344 286.492188 C 15.859375 285.371094 15.566406 284.398438 15.414062 283.714844 C 15.335938 283.367188 15.296875 283.097656 15.273438 282.917969 L 15.25 282.710938 L 15.246094 282.667969 L 15.246094 282.65625 C 15.234375 282.386719 15.035156 282.167969 14.773438 282.117188 L 14.667969 282.683594 " fill-opacity="1" fill-rule="nonzero"/><path fill="#0b132b" d="M 16.324219 191.066406 L 15.324219 231.988281 L 1.925781 283.007812 L 15.386719 283.007812 L 31.972656 236.253906 L 36.945312 200.058594 L 16.324219 191.066406 " fill-opacity="1" fill-rule="nonzero"/><path fill="#0b132b" d="M 16.324219 191.066406 L 15.746094 191.054688 L 14.746094 231.90625 L 1.367188 282.863281 C 1.320312 283.035156 1.359375 283.21875 1.46875 283.363281 C 1.578125 283.503906 1.75 283.585938 1.925781 283.585938 L 15.386719 283.585938 C 15.628906 283.585938 15.847656 283.433594 15.929688 283.203125 L 32.515625 236.449219 L 32.542969 236.335938 L 37.515625 200.136719 C 37.550781 199.882812 37.414062 199.636719 37.175781 199.53125 L 16.550781 190.535156 C 16.371094 190.460938 16.171875 190.476562 16.011719 190.582031 C 15.847656 190.683594 15.75 190.859375 15.746094 191.054688 L 16.324219 191.066406 L 16.089844 191.59375 L 36.3125 200.414062 L 31.410156 236.121094 L 14.980469 282.433594 L 2.671875 282.433594 L 15.882812 232.136719 L 15.898438 232 L 16.894531 191.082031 L 16.324219 191.066406 L 16.089844 191.59375 L 16.324219 191.066406 " fill-opacity="1" fill-rule="nonzero"/><path fill="#0b132b" d="M 55.625 289.3125 C 55.625 289.3125 59.183594 292.617188 67.078125 295.414062 C 68.15625 295.796875 69.429688 298.890625 65.316406 298.890625 L 44.640625 298.410156 L 44.640625 289.3125 L 55.625 289.3125 " fill-opacity="1" fill-rule="nonzero"/><path fill="#0b132b" d="M 55.625 289.3125 L 55.234375 289.730469 C 55.277344 289.773438 58.90625 293.128906 66.886719 295.957031 C 66.957031 295.976562 67.167969 296.132812 67.316406 296.378906 C 67.46875 296.617188 67.570312 296.921875 67.570312 297.179688 C 67.558594 297.460938 67.488281 297.671875 67.199219 297.898438 C 66.90625 298.113281 66.320312 298.316406 65.316406 298.316406 L 65.316406 298.890625 L 65.332031 298.316406 L 45.21875 297.847656 L 45.21875 289.886719 L 55.625 289.886719 L 55.625 289.3125 L 55.234375 289.730469 L 55.625 289.3125 L 55.625 288.734375 L 44.640625 288.734375 C 44.488281 288.734375 44.339844 288.792969 44.230469 288.902344 C 44.128906 289.007812 44.066406 289.15625 44.066406 289.3125 L 44.066406 298.410156 C 44.066406 298.722656 44.3125 298.976562 44.628906 298.984375 L 65.304688 299.46875 L 65.316406 299.46875 C 66.464844 299.46875 67.300781 299.246094 67.878906 298.824219 C 68.46875 298.402344 68.730469 297.757812 68.722656 297.179688 C 68.722656 296.648438 68.542969 296.160156 68.289062 295.761719 C 68.035156 295.363281 67.710938 295.035156 67.273438 294.871094 C 63.367188 293.488281 60.539062 291.976562 58.699219 290.828125 C 57.777344 290.246094 57.101562 289.757812 56.65625 289.414062 C 56.4375 289.242188 56.273438 289.109375 56.167969 289.019531 L 56.054688 288.917969 L 56.019531 288.886719 C 55.914062 288.789062 55.769531 288.734375 55.625 288.734375 L 55.625 289.3125 " fill-opacity="1" fill-rule="nonzero"/><path fill="#0b132b" d="M 15.0625 184.417969 L 16.324219 191.066406 L 42.96875 234.304688 L 42.917969 289.71875 L 57.6875 289.71875 L 60.632812 230.1875 L 47.957031 184.417969 L 15.0625 184.417969 " fill-opacity="1" fill-rule="nonzero"/><path fill="#0b132b" d="M 15.0625 184.417969 L 14.492188 184.527344 L 15.753906 191.171875 L 15.828125 191.367188 L 42.394531 234.46875 L 42.339844 289.71875 C 42.339844 289.871094 42.398438 290.015625 42.511719 290.128906 C 42.621094 290.238281 42.761719 290.296875 42.917969 290.296875 L 57.6875 290.296875 C 57.996094 290.296875 58.246094 290.058594 58.265625 289.75 L 61.210938 230.214844 L 61.191406 230.035156 L 48.511719 184.265625 C 48.441406 184.019531 48.21875 183.84375 47.957031 183.84375 L 15.0625 183.84375 C 14.890625 183.84375 14.722656 183.921875 14.617188 184.054688 C 14.507812 184.183594 14.460938 184.359375 14.492188 184.527344 L 15.0625 184.417969 L 15.0625 184.996094 L 47.519531 184.996094 L 60.054688 230.25 L 57.140625 289.144531 L 43.492188 289.144531 L 43.546875 234.304688 C 43.546875 234.199219 43.515625 234.09375 43.460938 234.003906 L 16.867188 190.855469 L 15.625 184.3125 L 15.0625 184.417969 L 15.0625 184.996094 L 15.0625 184.417969 " fill-opacity="1" fill-rule="nonzero"/><path fill="#ffffff" d="M 63.839844 183.925781 C 63.070312 183.042969 61.988281 180.792969 62.226562 180.46875 L 60.265625 178.519531 L 63.757812 175.074219 L 65.691406 177.023438 C 65.949219 176.863281 68.488281 177.6875 69.371094 177.929688 C 70.632812 178.28125 73.464844 179.71875 73.464844 179.71875 C 73.882812 179.90625 74.132812 180.359375 73.976562 180.699219 L 73.902344 180.867188 C 73.710938 181.261719 73.261719 181.265625 72.785156 181.066406 C 72.40625 180.910156 71.265625 180.472656 71.265625 180.472656 L 70.714844 180.507812 L 75.324219 184.910156 C 75.652344 185.238281 76.007812 186.039062 75.121094 186.28125 C 74.425781 186.476562 70.609375 182.75 70.285156 182.546875 L 69.964844 182.570312 L 74.289062 187.015625 C 74.660156 187.386719 74.902344 187.742188 74.574219 188.066406 L 74.371094 188.261719 C 74.042969 188.585938 73.617188 188.390625 73.25 188.019531 L 68.75 183.722656 L 68.535156 183.746094 C 68.667969 184.054688 73.160156 188.117188 72.230469 188.800781 C 71.863281 189.074219 71.496094 189.039062 71.167969 188.707031 L 66.984375 184.390625 L 66.789062 184.496094 C 66.84375 184.742188 70.585938 188.265625 69.691406 189.046875 C 69.390625 189.308594 69.054688 189.191406 68.519531 188.648438 C 67.800781 187.914062 65.679688 185.765625 65.652344 185.71875 C 65.652344 185.71875 64.347656 184.507812 63.839844 183.925781 " fill-opacity="1" fill-rule="nonzero"/><path fill="#0b132b" d="M 63.839844 183.925781 L 64.273438 183.546875 C 63.984375 183.21875 63.578125 182.5625 63.273438 181.941406 C 63.121094 181.628906 62.984375 181.328125 62.894531 181.082031 C 62.804688 180.839844 62.765625 180.628906 62.769531 180.617188 L 62.570312 180.617188 L 62.765625 180.664062 L 62.769531 180.617188 L 62.570312 180.617188 L 62.765625 180.664062 L 62.351562 180.566406 L 62.683594 180.824219 L 62.765625 180.664062 L 62.351562 180.566406 L 62.683594 180.824219 C 62.863281 180.597656 62.839844 180.269531 62.636719 180.066406 L 61.085938 178.519531 L 63.753906 175.886719 L 65.28125 177.429688 C 65.476562 177.621094 65.773438 177.660156 66.003906 177.511719 L 65.761719 177.132812 L 65.839844 177.578125 L 66.003906 177.511719 L 65.761719 177.132812 L 65.839844 177.578125 L 65.808594 177.414062 L 65.8125 177.582031 L 65.839844 177.578125 L 65.808594 177.414062 L 65.8125 177.582031 C 65.847656 177.578125 66.085938 177.613281 66.363281 177.675781 C 67.21875 177.878906 68.59375 178.3125 69.21875 178.488281 C 69.773438 178.636719 70.792969 179.082031 71.644531 179.476562 C 72.074219 179.679688 72.464844 179.867188 72.746094 180.007812 C 73.027344 180.144531 73.199219 180.230469 73.203125 180.230469 L 73.226562 180.246094 L 73.402344 180.382812 L 73.445312 180.480469 L 73.472656 180.480469 L 73.445312 180.46875 L 73.445312 180.480469 L 73.472656 180.480469 L 73.445312 180.46875 L 73.453125 180.464844 L 73.375 180.632812 L 73.902344 180.867188 L 73.382812 180.613281 L 73.378906 180.621094 L 73.40625 180.648438 L 73.394531 180.613281 L 73.378906 180.621094 L 73.40625 180.648438 L 73.394531 180.613281 L 73.339844 180.617188 C 73.277344 180.617188 73.148438 180.597656 73.003906 180.539062 C 72.609375 180.371094 71.472656 179.9375 71.46875 179.9375 L 71.234375 179.898438 L 70.679688 179.929688 C 70.453125 179.945312 70.25 180.085938 70.171875 180.304688 C 70.089844 180.519531 70.148438 180.761719 70.316406 180.917969 L 74.929688 185.324219 L 75.324219 184.910156 L 74.914062 185.316406 L 75.105469 185.675781 L 75.105469 185.683594 L 75.140625 185.6875 L 75.113281 185.664062 L 75.105469 185.683594 L 75.140625 185.6875 L 75.113281 185.664062 C 75.113281 185.664062 75.082031 185.695312 74.96875 185.726562 L 74.972656 185.726562 L 75.0625 186.066406 L 75.0625 185.714844 L 74.972656 185.726562 L 75.0625 186.066406 L 75.0625 185.714844 L 75.0625 185.882812 L 75.097656 185.71875 L 75.0625 185.714844 L 75.0625 185.882812 L 75.097656 185.71875 C 75.09375 185.71875 74.964844 185.667969 74.808594 185.574219 C 74.230469 185.234375 73.234375 184.398438 72.386719 183.644531 C 71.964844 183.269531 71.570312 182.90625 71.257812 182.628906 C 71.105469 182.488281 70.972656 182.371094 70.867188 182.28125 L 70.726562 182.160156 L 70.589844 182.058594 C 70.484375 181.996094 70.367188 181.964844 70.246094 181.972656 L 69.925781 181.996094 C 69.703125 182.011719 69.511719 182.15625 69.429688 182.363281 C 69.347656 182.574219 69.398438 182.808594 69.554688 182.972656 L 73.875 187.414062 L 73.878906 187.417969 C 73.988281 187.53125 74.074219 187.632812 74.117188 187.699219 L 74.148438 187.761719 L 74.160156 187.757812 L 74.148438 187.761719 L 74.160156 187.757812 L 74.148438 187.761719 L 74.277344 187.734375 L 74.148438 187.734375 L 74.148438 187.761719 L 74.277344 187.734375 L 74.148438 187.734375 L 74.320312 187.734375 L 74.164062 187.664062 L 74.148438 187.734375 L 74.320312 187.734375 L 74.164062 187.664062 L 74.242188 187.703125 L 74.171875 187.648438 L 74.164062 187.664062 L 74.242188 187.703125 L 74.171875 187.648438 L 74.164062 187.65625 L 74.574219 188.066406 L 74.167969 187.652344 L 73.96875 187.851562 L 73.964844 187.851562 L 73.957031 187.859375 L 73.992188 187.914062 L 73.992188 187.851562 L 73.957031 187.859375 L 73.992188 187.914062 L 73.992188 187.851562 L 73.976562 187.847656 C 73.929688 187.832031 73.792969 187.753906 73.660156 187.613281 L 73.644531 187.597656 L 69.148438 183.304688 C 69.023438 183.1875 68.851562 183.128906 68.6875 183.152344 L 68.464844 183.171875 C 68.285156 183.195312 68.125 183.300781 68.035156 183.460938 C 67.9375 183.617188 67.929688 183.8125 68 183.980469 C 68.074219 184.117188 68.105469 184.140625 68.15625 184.203125 C 68.316406 184.398438 68.605469 184.683594 68.984375 185.074219 C 69.546875 185.648438 70.28125 186.40625 70.855469 187.101562 C 71.144531 187.445312 71.398438 187.78125 71.558594 188.050781 C 71.644531 188.183594 71.703125 188.304688 71.738281 188.390625 L 71.777344 188.496094 L 71.78125 188.527344 L 71.972656 188.527344 L 71.796875 188.449219 L 71.78125 188.527344 L 71.972656 188.527344 L 71.796875 188.449219 L 72.050781 188.558594 L 71.882812 188.335938 L 71.796875 188.449219 L 72.050781 188.558594 L 71.882812 188.335938 L 71.886719 188.335938 L 71.738281 188.410156 C 71.730469 188.410156 71.691406 188.414062 71.578125 188.304688 L 71.582031 188.304688 L 67.398438 183.992188 C 67.21875 183.808594 66.9375 183.761719 66.714844 183.878906 L 66.519531 183.988281 C 66.289062 184.105469 66.167969 184.367188 66.222656 184.617188 C 66.253906 184.738281 66.285156 184.773438 66.304688 184.820312 C 66.386719 184.945312 66.453125 185.019531 66.5625 185.144531 C 66.921875 185.546875 67.613281 186.277344 68.222656 187.019531 C 68.519531 187.394531 68.800781 187.761719 68.988281 188.082031 C 69.183594 188.390625 69.261719 188.664062 69.25 188.707031 L 69.25 188.710938 L 69.414062 188.738281 L 69.308594 188.617188 L 69.25 188.710938 L 69.414062 188.738281 L 69.308594 188.617188 L 69.3125 188.613281 L 69.300781 188.621094 L 69.367188 188.71875 L 69.367188 188.601562 L 69.300781 188.621094 L 69.367188 188.71875 L 69.367188 188.601562 L 69.367188 188.695312 L 69.382812 188.605469 L 69.367188 188.601562 L 69.367188 188.695312 L 69.382812 188.605469 L 69.363281 188.59375 C 69.300781 188.570312 69.136719 188.453125 68.929688 188.242188 C 68.570312 187.878906 67.859375 187.160156 67.234375 186.519531 C 66.925781 186.207031 66.632812 185.910156 66.421875 185.6875 C 66.3125 185.578125 66.226562 185.488281 66.164062 185.425781 L 66.097656 185.355469 L 66.085938 185.347656 L 65.863281 185.542969 L 66.09375 185.351562 L 66.085938 185.347656 L 65.863281 185.542969 L 66.09375 185.351562 L 65.671875 185.703125 L 66.140625 185.417969 L 66.09375 185.351562 L 65.671875 185.703125 L 66.140625 185.417969 L 66.042969 185.296875 C 66.042969 185.296875 65.71875 185 65.335938 184.625 C 64.953125 184.257812 64.496094 183.808594 64.273438 183.546875 L 63.839844 183.925781 L 63.402344 184.300781 C 63.6875 184.625 64.136719 185.070312 64.535156 185.453125 C 64.925781 185.835938 65.253906 186.136719 65.253906 186.136719 L 65.652344 185.71875 L 65.160156 186.019531 L 65.210938 186.09375 L 65.273438 186.160156 C 65.585938 186.492188 67.4375 188.375 68.109375 189.046875 C 68.304688 189.25 68.484375 189.40625 68.683594 189.535156 C 68.875 189.65625 69.101562 189.753906 69.367188 189.753906 C 69.636719 189.757812 69.898438 189.632812 70.070312 189.480469 L 70.070312 189.476562 C 70.308594 189.277344 70.410156 188.957031 70.402344 188.707031 C 70.402344 188.441406 70.324219 188.207031 70.226562 187.972656 C 69.875 187.179688 69.140625 186.304688 68.476562 185.542969 C 68.144531 185.171875 67.835938 184.832031 67.605469 184.582031 C 67.492188 184.460938 67.402344 184.355469 67.34375 184.285156 L 67.289062 184.21875 L 67.152344 184.320312 L 67.300781 184.234375 L 67.289062 184.21875 L 67.152344 184.320312 L 67.300781 184.234375 L 66.875 184.476562 L 67.351562 184.375 L 67.300781 184.234375 L 66.875 184.476562 L 67.351562 184.375 L 66.789062 184.496094 L 67.0625 185.003906 L 67.253906 184.902344 L 66.984375 184.390625 L 66.570312 184.792969 L 70.753906 189.105469 L 70.757812 189.109375 C 71.003906 189.367188 71.351562 189.5625 71.738281 189.5625 C 72.050781 189.5625 72.339844 189.4375 72.578125 189.265625 L 72.578125 189.257812 C 72.820312 189.089844 72.941406 188.765625 72.933594 188.527344 C 72.929688 188.230469 72.828125 187.992188 72.710938 187.746094 C 72.285156 186.914062 71.382812 185.921875 70.558594 185.042969 C 70.144531 184.609375 69.753906 184.210938 69.464844 183.914062 C 69.316406 183.765625 69.195312 183.640625 69.113281 183.550781 L 69.027344 183.457031 L 69.019531 183.441406 L 68.707031 183.667969 L 69.058594 183.515625 L 69.019531 183.441406 L 68.707031 183.667969 L 69.058594 183.515625 L 68.535156 183.746094 L 68.597656 184.320312 L 68.8125 184.292969 L 68.75 183.722656 L 68.351562 184.136719 L 72.847656 188.433594 L 73.25 188.019531 L 72.835938 188.421875 C 73.132812 188.710938 73.476562 188.984375 73.992188 189.003906 C 74.269531 189.007812 74.574219 188.882812 74.773438 188.671875 L 74.769531 188.675781 L 74.972656 188.476562 L 74.976562 188.472656 C 75.167969 188.292969 75.308594 188.011719 75.300781 187.734375 C 75.296875 187.457031 75.195312 187.238281 75.082031 187.070312 C 74.964844 186.894531 74.832031 186.75 74.699219 186.609375 L 74.289062 187.015625 L 74.699219 186.613281 L 70.378906 182.171875 L 69.964844 182.570312 L 70.011719 183.140625 L 70.324219 183.125 L 70.285156 182.546875 L 69.980469 183.035156 L 70.113281 182.816406 L 69.964844 183.023438 L 69.980469 183.035156 L 70.113281 182.816406 L 69.964844 183.023438 C 69.96875 183.03125 70.078125 183.113281 70.207031 183.238281 C 70.679688 183.65625 71.628906 184.53125 72.550781 185.304688 C 73.011719 185.695312 73.46875 186.0625 73.871094 186.339844 C 74.074219 186.480469 74.261719 186.597656 74.445312 186.691406 C 74.636719 186.777344 74.800781 186.855469 75.0625 186.867188 L 75.273438 186.839844 C 75.5625 186.757812 75.820312 186.613281 76 186.398438 C 76.183594 186.183594 76.257812 185.910156 76.257812 185.675781 C 76.238281 185.148438 75.992188 184.773438 75.734375 184.503906 L 75.726562 184.492188 L 71.109375 180.085938 L 70.714844 180.507812 L 70.746094 181.082031 L 71.292969 181.050781 L 71.265625 180.472656 L 71.058594 181.015625 C 71.058594 181.015625 71.34375 181.121094 71.675781 181.253906 C 72.003906 181.378906 72.386719 181.527344 72.5625 181.597656 C 72.808594 181.699219 73.0625 181.769531 73.339844 181.769531 C 73.535156 181.769531 73.753906 181.734375 73.949219 181.621094 C 74.148438 181.507812 74.320312 181.328125 74.417969 181.117188 L 74.429688 181.101562 L 74.5 180.9375 L 74.503906 180.933594 C 74.566406 180.789062 74.601562 180.632812 74.601562 180.480469 C 74.582031 179.890625 74.207031 179.433594 73.699219 179.195312 L 73.464844 179.71875 L 73.726562 179.207031 C 73.722656 179.207031 73.011719 178.839844 72.132812 178.433594 C 71.253906 178.023438 70.230469 177.574219 69.523438 177.375 C 69.136719 177.273438 68.382812 177.039062 67.660156 176.832031 C 67.300781 176.726562 66.9375 176.628906 66.628906 176.558594 C 66.308594 176.484375 66.0625 176.429688 65.8125 176.429688 C 65.703125 176.433594 65.601562 176.417969 65.378906 176.539062 L 65.691406 177.023438 L 66.101562 176.621094 L 64.167969 174.667969 C 63.945312 174.441406 63.578125 174.4375 63.355469 174.664062 L 59.859375 178.109375 C 59.75 178.214844 59.6875 178.359375 59.6875 178.519531 C 59.6875 178.671875 59.746094 178.816406 59.859375 178.921875 L 61.824219 180.878906 L 62.226562 180.46875 L 61.773438 180.121094 C 61.621094 180.332031 61.625 180.496094 61.617188 180.617188 C 61.625 180.90625 61.703125 181.164062 61.8125 181.472656 C 62.148438 182.382812 62.804688 183.605469 63.402344 184.300781 L 63.839844 183.925781 " fill-opacity="1" fill-rule="nonzero"/><path fill="#ffffff" d="M 44.8125 149.371094 L 37.320312 156.289062 L 61.867188 182.1875 L 67.21875 176.359375 L 44.8125 149.371094 " fill-opacity="1" fill-rule="nonzero"/><path fill="#0b132b" d="M 44.8125 149.371094 L 44.421875 148.949219 L 36.925781 155.871094 C 36.8125 155.972656 36.746094 156.117188 36.742188 156.269531 C 36.738281 156.421875 36.792969 156.574219 36.898438 156.6875 L 61.449219 182.585938 C 61.558594 182.699219 61.710938 182.769531 61.871094 182.765625 C 62.03125 182.765625 62.183594 182.695312 62.292969 182.578125 L 67.640625 176.746094 C 67.835938 176.535156 67.84375 176.210938 67.660156 175.988281 L 45.253906 149 C 45.15625 148.878906 45.007812 148.804688 44.847656 148.792969 C 44.691406 148.785156 44.539062 148.839844 44.421875 148.949219 L 44.8125 149.371094 L 44.367188 149.738281 L 66.453125 176.335938 L 61.859375 181.347656 L 38.136719 156.320312 L 45.203125 149.792969 L 44.8125 149.371094 L 44.367188 149.738281 L 44.8125 149.371094 " fill-opacity="1" fill-rule="nonzero"/><path fill="#ffffff" d="M 38.070312 117.261719 L 26.476562 117.261719 L 26.476562 107.210938 L 38.070312 107.210938 L 38.070312 117.261719 " fill-opacity="1" fill-rule="nonzero"/><path fill="#0b132b" d="M 38.070312 117.261719 L 38.070312 116.6875 L 27.054688 116.6875 L 27.054688 107.785156 L 37.492188 107.785156 L 37.492188 117.261719 L 38.070312 117.261719 L 38.070312 116.6875 L 38.070312 117.261719 L 38.648438 117.261719 L 38.648438 107.210938 C 38.648438 107.054688 38.589844 106.90625 38.480469 106.800781 C 38.371094 106.691406 38.226562 106.632812 38.070312 106.632812 L 26.476562 106.632812 C 26.324219 106.632812 26.175781 106.691406 26.074219 106.800781 C 25.964844 106.90625 25.902344 107.054688 25.902344 107.210938 L 25.902344 117.261719 C 25.902344 117.414062 25.960938 117.5625 26.074219 117.671875 C 26.179688 117.78125 26.324219 117.839844 26.476562 117.839844 L 38.070312 117.839844 C 38.226562 117.839844 38.371094 117.78125 38.480469 117.671875 C 38.589844 117.5625 38.648438 117.414062 38.648438 117.261719 L 38.070312 117.261719 " fill-opacity="1" fill-rule="nonzero"/><path fill="#ffffff" d="M 39.621094 110.78125 L 21.839844 110.78125 L 17.070312 90.734375 L 19.390625 78.933594 L 42.703125 78.574219 L 42.199219 82.929688 L 47.898438 97.074219 L 45.46875 98.777344 L 43.988281 106.648438 L 39.621094 110.78125 " fill-opacity="1" fill-rule="nonzero"/><path fill="#0b132b" d="M 39.621094 110.78125 L 39.621094 110.207031 L 22.292969 110.207031 L 17.65625 90.71875 L 19.867188 79.503906 L 42.054688 79.160156 L 41.628906 82.867188 L 41.664062 83.144531 L 47.195312 96.863281 L 45.140625 98.308594 C 45.019531 98.394531 44.933594 98.523438 44.90625 98.667969 L 43.457031 106.355469 L 39.222656 110.363281 L 39.621094 110.78125 L 39.621094 110.207031 L 39.621094 110.78125 L 40.015625 111.199219 L 44.382812 107.066406 C 44.476562 106.980469 44.535156 106.871094 44.554688 106.75 L 45.992188 99.113281 L 48.230469 97.542969 C 48.445312 97.390625 48.53125 97.105469 48.433594 96.859375 L 42.789062 82.851562 L 43.277344 78.636719 C 43.292969 78.472656 43.242188 78.308594 43.128906 78.1875 C 43.015625 78.0625 42.863281 77.996094 42.695312 78 L 19.378906 78.359375 C 19.109375 78.363281 18.875 78.554688 18.820312 78.828125 L 16.503906 90.621094 L 16.507812 90.863281 L 21.277344 110.910156 C 21.339844 111.171875 21.570312 111.355469 21.839844 111.355469 L 39.621094 111.355469 C 39.765625 111.355469 39.90625 111.296875 40.015625 111.199219 L 39.621094 110.78125 " fill-opacity="1" fill-rule="nonzero"/><path fill="#ffffff" d="M 41.222656 86.742188 C 41.222656 86.742188 38.269531 86.855469 35.832031 89.402344 " fill-opacity="1" fill-rule="nonzero"/><path fill="#0b132b" d="M 41.261719 87.320312 C 41.238281 87.320312 40.929688 87.296875 40.382812 87.363281 C 40.113281 87.398438 39.796875 87.453125 39.460938 87.53125 C 39.132812 87.632812 38.765625 87.707031 38.425781 87.859375 C 38.078125 87.992188 37.726562 88.132812 37.425781 88.320312 C 37.121094 88.496094 36.820312 88.640625 36.601562 88.824219 C 36.136719 89.171875 35.832031 89.402344 35.832031 89.402344 C 35.832031 89.402344 36.09375 89.117188 36.484375 88.691406 C 36.667969 88.457031 36.945312 88.257812 37.226562 88.019531 C 37.5 87.769531 37.832031 87.558594 38.167969 87.347656 C 38.5 87.113281 38.867188 86.964844 39.199219 86.789062 C 39.546875 86.636719 39.882812 86.507812 40.167969 86.414062 C 40.746094 86.226562 41.210938 86.167969 41.1875 86.167969 C 41.503906 86.144531 41.777344 86.386719 41.800781 86.703125 C 41.816406 87.023438 41.578125 87.296875 41.261719 87.320312 " fill-opacity="1" fill-rule="nonzero"/><g clip-path="url(#2604bfcdd2)"><path fill="#0b132b" d="M 39.789062 73.921875 L 21.742188 75.714844 L 16.5625 80.703125 L 13.707031 88.089844 L 18.214844 107.816406 L 21.367188 110.78125 L 25.453125 110.78125 L 22.617188 100.492188 C 21.484375 100.621094 20.390625 99.195312 20.175781 97.304688 C 19.964844 95.414062 20.722656 93.78125 21.863281 93.65625 C 22.203125 93.617188 22.542969 93.734375 22.851562 93.949219 L 24.546875 87.710938 C 24.546875 87.710938 34.066406 88.820312 43.042969 83.140625 C 43.042969 83.140625 48.234375 83.234375 50.25 77.660156 C 50.25 77.660156 45.277344 77.929688 39.789062 73.921875 " fill-opacity="1" fill-rule="nonzero"/></g><g clip-path="url(#05e6f7675a)"><path fill="#0b132b" d="M 39.789062 73.921875 L 39.730469 73.351562 L 21.683594 75.140625 C 21.554688 75.152344 21.429688 75.210938 21.339844 75.300781 L 16.160156 80.289062 L 16.023438 80.496094 L 13.164062 87.875 C 13.125 87.984375 13.117188 88.101562 13.144531 88.214844 L 17.652344 107.941406 C 17.679688 108.054688 17.738281 108.152344 17.816406 108.234375 L 20.96875 111.199219 C 21.078125 111.296875 21.21875 111.355469 21.367188 111.355469 L 25.453125 111.355469 C 25.632812 111.355469 25.800781 111.269531 25.910156 111.128906 C 26.019531 110.988281 26.054688 110.800781 26.003906 110.628906 L 23.175781 100.339844 C 23.101562 100.066406 22.839844 99.890625 22.554688 99.917969 L 22.480469 99.925781 C 22.195312 99.929688 21.8125 99.722656 21.460938 99.242188 C 21.117188 98.765625 20.839844 98.054688 20.75 97.242188 C 20.726562 97.046875 20.71875 96.855469 20.71875 96.675781 C 20.71875 95.949219 20.878906 95.3125 21.125 94.882812 C 21.375 94.449219 21.660156 94.253906 21.925781 94.226562 L 21.988281 94.222656 C 22.140625 94.222656 22.316406 94.28125 22.523438 94.421875 C 22.679688 94.527344 22.875 94.554688 23.050781 94.488281 C 23.226562 94.425781 23.363281 94.277344 23.410156 94.097656 L 25.101562 87.859375 L 24.546875 87.710938 L 24.476562 88.28125 C 24.496094 88.28125 25.269531 88.371094 26.582031 88.371094 C 29.921875 88.371094 36.765625 87.792969 43.351562 83.625 L 43.042969 83.140625 L 43.042969 83.714844 L 43.0625 83.714844 C 43.269531 83.714844 44.65625 83.6875 46.28125 82.945312 C 47.90625 82.203125 49.765625 80.703125 50.789062 77.859375 C 50.855469 77.675781 50.824219 77.472656 50.707031 77.320312 C 50.59375 77.167969 50.410156 77.078125 50.21875 77.089844 L 50.046875 77.089844 C 49.144531 77.089844 44.839844 76.898438 40.128906 73.460938 C 40.011719 73.375 39.871094 73.339844 39.730469 73.351562 L 39.789062 73.921875 L 39.449219 74.390625 C 44.421875 78.015625 48.988281 78.242188 50.046875 78.242188 C 50.191406 78.242188 50.265625 78.238281 50.277344 78.238281 L 50.25 77.660156 L 49.703125 77.46875 C 48.78125 80.015625 47.203125 81.246094 45.796875 81.898438 C 44.398438 82.546875 43.164062 82.5625 43.0625 82.5625 L 43.042969 82.5625 C 42.933594 82.5625 42.828125 82.597656 42.734375 82.652344 C 36.421875 86.652344 29.792969 87.222656 26.582031 87.21875 C 25.953125 87.21875 25.457031 87.199219 25.117188 87.179688 C 24.945312 87.171875 24.820312 87.15625 24.734375 87.148438 L 24.609375 87.140625 C 24.324219 87.101562 24.0625 87.28125 23.988281 87.558594 L 22.292969 93.800781 L 22.851562 93.949219 L 23.179688 93.476562 C 22.839844 93.242188 22.4375 93.070312 21.988281 93.070312 L 21.792969 93.085938 C 21.050781 93.167969 20.476562 93.679688 20.117188 94.324219 C 19.757812 94.96875 19.566406 95.785156 19.566406 96.675781 C 19.566406 96.898438 19.578125 97.132812 19.605469 97.367188 C 19.71875 98.363281 20.046875 99.246094 20.527344 99.917969 C 21.007812 100.578125 21.675781 101.070312 22.480469 101.078125 L 22.679688 101.066406 L 22.617188 100.492188 L 22.066406 100.648438 L 24.695312 110.207031 L 21.589844 110.207031 L 18.738281 107.515625 L 14.304688 88.128906 L 17.050781 81.027344 L 21.996094 76.265625 L 39.84375 74.5 L 39.789062 73.921875 L 39.449219 74.390625 L 39.789062 73.921875 " fill-opacity="1" fill-rule="nonzero"/></g><path fill="#ffffff" d="M 38.984375 118.082031 L 24.511719 116.449219 L 24.96875 112.417969 L 39.441406 114.054688 L 38.984375 118.082031 " fill-opacity="1" fill-rule="nonzero"/><path fill="#0b132b" d="M 38.984375 118.082031 L 39.050781 117.511719 L 25.148438 115.941406 L 25.476562 113.058594 L 38.800781 114.558594 L 38.414062 118.019531 L 38.984375 118.082031 L 39.050781 117.511719 L 38.984375 118.082031 L 39.558594 118.144531 L 40.011719 114.117188 C 40.046875 113.804688 39.816406 113.515625 39.503906 113.480469 L 25.03125 111.847656 C 24.71875 111.8125 24.433594 112.039062 24.398438 112.355469 L 23.9375 116.382812 C 23.921875 116.535156 23.964844 116.6875 24.058594 116.804688 C 24.152344 116.925781 24.292969 117 24.445312 117.019531 L 38.921875 118.652344 C 39.074219 118.671875 39.222656 118.625 39.34375 118.53125 C 39.464844 118.4375 39.542969 118.296875 39.558594 118.144531 L 38.984375 118.082031 " fill-opacity="1" fill-rule="nonzero"/><path fill="#ffffff" d="M 24.570312 115.96875 L 15.0625 163.828125 L 15.0625 185.902344 L 49.074219 185.902344 L 40.679688 118.082031 L 24.570312 115.96875 " fill-opacity="1" fill-rule="nonzero"/><path fill="#0b132b" d="M 24.570312 115.96875 L 24 115.855469 L 14.492188 163.714844 L 14.484375 163.828125 L 14.484375 185.902344 C 14.484375 186.0625 14.542969 186.207031 14.652344 186.3125 C 14.757812 186.421875 14.902344 186.480469 15.0625 186.480469 L 49.074219 186.480469 C 49.234375 186.480469 49.394531 186.40625 49.503906 186.285156 C 49.613281 186.164062 49.664062 186 49.644531 185.835938 L 41.25 118.007812 C 41.21875 117.75 41.015625 117.546875 40.753906 117.511719 L 24.640625 115.394531 C 24.339844 115.355469 24.058594 115.554688 24 115.855469 L 24.570312 115.96875 L 24.492188 116.539062 L 40.160156 118.59375 L 48.421875 185.328125 L 15.636719 185.328125 L 15.636719 163.886719 L 25.132812 116.078125 L 24.570312 115.96875 L 24.492188 116.539062 L 24.570312 115.96875 " fill-opacity="1" fill-rule="nonzero"/><path fill="#0b132b" d="M 40.746094 118.597656 L 46.507812 153.664062 L 44.484375 161.09375 L 40.277344 154.058594 L 39.441406 118.320312 L 40.746094 118.597656 " fill-opacity="1" fill-rule="nonzero"/><path fill="#0b132b" d="M 40.746094 118.597656 L 40.179688 118.6875 L 45.914062 153.632812 L 44.285156 159.636719 L 40.847656 153.890625 L 40.03125 119.035156 L 40.628906 119.160156 L 40.746094 118.597656 L 40.179688 118.6875 L 40.746094 118.597656 L 40.867188 118.03125 L 39.558594 117.753906 C 39.386719 117.71875 39.207031 117.761719 39.070312 117.875 C 38.933594 117.988281 38.859375 118.15625 38.863281 118.332031 L 39.699219 154.070312 L 39.78125 154.347656 L 43.988281 161.390625 C 44.105469 161.585938 44.335938 161.695312 44.558594 161.664062 C 44.789062 161.632812 44.980469 161.464844 45.042969 161.246094 L 47.058594 153.8125 L 47.074219 153.570312 L 41.3125 118.503906 C 41.277344 118.269531 41.097656 118.082031 40.867188 118.03125 L 40.746094 118.597656 " fill-opacity="1" fill-rule="nonzero"/><path fill="#0b132b" d="M 39.441406 114.054688 L 41.546875 115.96875 L 40.492188 119.421875 L 39.007812 117.867188 L 39.441406 114.054688 " fill-opacity="1" fill-rule="nonzero"/><path fill="#0b132b" d="M 39.441406 114.054688 L 39.050781 114.476562 L 40.890625 116.148438 L 40.226562 118.3125 L 39.609375 117.664062 L 40.011719 114.117188 L 39.441406 114.054688 L 39.050781 114.476562 L 39.441406 114.054688 L 38.863281 113.988281 L 38.433594 117.800781 C 38.417969 117.972656 38.472656 118.140625 38.589844 118.265625 L 40.074219 119.820312 C 40.21875 119.964844 40.425781 120.027344 40.628906 119.984375 C 40.828125 119.933594 40.984375 119.785156 41.042969 119.589844 L 42.101562 116.132812 C 42.164062 115.921875 42.101562 115.6875 41.933594 115.539062 L 39.828125 113.628906 C 39.664062 113.480469 39.433594 113.4375 39.234375 113.515625 C 39.03125 113.59375 38.890625 113.773438 38.863281 113.988281 L 39.441406 114.054688 " fill-opacity="1" fill-rule="nonzero"/><path fill="#ffffff" d="M 19.484375 193.386719 C 19.21875 192.25 19.308594 189.757812 19.671875 189.582031 L 18.847656 186.9375 L 23.546875 185.515625 L 24.347656 188.148438 C 24.644531 188.121094 26.507812 190.039062 27.179688 190.664062 C 28.132812 191.554688 29.964844 194.148438 29.964844 194.148438 C 30.242188 194.511719 30.257812 195.027344 29.960938 195.253906 L 29.816406 195.367188 C 29.464844 195.625 29.0625 195.421875 28.734375 195.027344 C 28.472656 194.710938 27.667969 193.796875 27.667969 193.796875 L 27.164062 193.5625 L 29.1875 199.605469 C 29.324219 200.046875 29.265625 200.921875 28.371094 200.730469 C 27.664062 200.578125 26.019531 195.5 25.828125 195.175781 L 25.542969 195.042969 L 27.289062 200.984375 C 27.441406 201.488281 27.488281 201.917969 27.046875 202.046875 L 26.78125 202.128906 C 26.339844 202.261719 26.054688 201.894531 25.898438 201.390625 L 23.925781 195.492188 L 23.722656 195.417969 C 23.695312 195.753906 25.769531 201.429688 24.636719 201.609375 C 24.175781 201.679688 23.875 201.480469 23.734375 201.03125 L 22.050781 195.269531 L 21.824219 195.269531 C 21.761719 195.511719 23.433594 200.371094 22.273438 200.644531 C 21.882812 200.734375 21.640625 200.472656 21.425781 199.746094 C 21.128906 198.765625 20.253906 195.871094 20.25 195.816406 C 20.25 195.816406 19.664062 194.140625 19.484375 193.386719 " fill-opacity="1" fill-rule="nonzero"/><path fill="#0b132b" d="M 19.484375 193.386719 L 20.046875 193.257812 C 19.957031 192.890625 19.902344 192.253906 19.90625 191.648438 C 19.90625 191.171875 19.933594 190.703125 19.988281 190.371094 C 20.011719 190.203125 20.042969 190.070312 20.070312 190 L 20.082031 189.96875 L 20.082031 189.964844 L 19.769531 189.785156 L 19.921875 190.105469 C 20.050781 190.039062 20.074219 189.972656 20.082031 189.964844 L 19.769531 189.785156 L 19.921875 190.105469 C 20.175781 189.980469 20.308594 189.6875 20.222656 189.414062 L 19.570312 187.324219 L 23.164062 186.238281 L 23.792969 188.316406 C 23.871094 188.558594 24.089844 188.722656 24.347656 188.722656 L 24.347656 188.347656 L 24.191406 188.695312 C 24.199219 188.695312 24.226562 188.71875 24.347656 188.722656 L 24.347656 188.347656 L 24.191406 188.695312 L 24.203125 188.664062 L 24.191406 188.695312 L 24.203125 188.664062 L 24.191406 188.695312 C 24.210938 188.703125 24.410156 188.84375 24.621094 189.03125 C 25.289062 189.601562 26.308594 190.636719 26.785156 191.082031 C 27.203125 191.472656 27.902344 192.339844 28.46875 193.085938 C 28.753906 193.464844 29.007812 193.8125 29.195312 194.066406 C 29.378906 194.324219 29.492188 194.480469 29.492188 194.480469 L 29.503906 194.503906 L 29.597656 194.757812 L 29.59375 194.816406 L 29.597656 194.816406 L 29.59375 194.808594 L 29.59375 194.816406 L 29.597656 194.816406 L 29.59375 194.808594 L 29.636719 194.839844 L 29.605469 194.800781 L 29.59375 194.808594 L 29.636719 194.839844 L 29.605469 194.800781 L 29.464844 194.910156 L 29.816406 195.367188 L 29.472656 194.90625 L 29.464844 194.910156 L 29.476562 194.941406 L 29.476562 194.90625 L 29.464844 194.910156 L 29.476562 194.941406 L 29.476562 194.90625 L 29.46875 194.90625 C 29.429688 194.894531 29.300781 194.816406 29.175781 194.660156 L 29.179688 194.660156 C 28.902344 194.328125 28.097656 193.421875 28.097656 193.414062 L 27.910156 193.277344 L 27.40625 193.042969 C 27.199219 192.941406 26.949219 192.980469 26.78125 193.132812 C 26.609375 193.285156 26.546875 193.527344 26.617188 193.742188 L 28.644531 199.789062 L 29.1875 199.605469 L 28.640625 199.777344 L 28.667969 199.988281 C 28.671875 200.09375 28.636719 200.183594 28.632812 200.191406 L 28.640625 200.195312 L 28.632812 200.183594 L 28.632812 200.191406 L 28.640625 200.195312 L 28.632812 200.183594 L 28.664062 200.214844 L 28.648438 200.175781 L 28.632812 200.183594 L 28.664062 200.214844 L 28.648438 200.175781 L 28.605469 200.179688 L 28.488281 200.167969 L 28.414062 200.5 L 28.589844 200.203125 L 28.492188 200.167969 L 28.414062 200.5 L 28.589844 200.203125 L 28.535156 200.296875 L 28.609375 200.214844 L 28.589844 200.203125 L 28.535156 200.296875 L 28.609375 200.214844 C 28.59375 200.207031 28.5 200.09375 28.40625 199.933594 C 28.054688 199.351562 27.566406 198.15625 27.171875 197.105469 C 26.972656 196.578125 26.792969 196.078125 26.652344 195.691406 C 26.582031 195.5 26.519531 195.335938 26.46875 195.207031 L 26.402344 195.035156 L 26.328125 194.886719 C 26.269531 194.777344 26.175781 194.691406 26.0625 194.644531 L 25.769531 194.519531 C 25.570312 194.425781 25.328125 194.464844 25.160156 194.613281 C 24.992188 194.761719 24.925781 194.988281 24.988281 195.207031 L 26.734375 201.148438 L 26.734375 201.152344 C 26.792969 201.335938 26.820312 201.488281 26.820312 201.558594 L 26.816406 201.585938 L 26.960938 201.621094 L 26.855469 201.519531 L 26.816406 201.585938 L 26.960938 201.621094 L 26.855469 201.519531 L 26.957031 201.617188 L 26.886719 201.496094 L 26.855469 201.519531 L 26.957031 201.617188 L 26.886719 201.496094 L 26.898438 201.515625 L 26.886719 201.496094 L 26.898438 201.515625 L 26.886719 201.496094 L 26.878906 201.5 L 26.613281 201.578125 L 26.605469 201.578125 L 26.605469 201.59375 L 26.605469 201.578125 L 26.605469 201.59375 L 26.605469 201.578125 L 26.605469 201.652344 L 26.636719 201.589844 L 26.605469 201.578125 L 26.605469 201.652344 L 26.636719 201.589844 L 26.625 201.574219 C 26.585938 201.542969 26.503906 201.410156 26.445312 201.21875 L 26.441406 201.207031 L 24.46875 195.3125 C 24.414062 195.152344 24.289062 195.019531 24.132812 194.957031 L 23.929688 194.882812 C 23.753906 194.808594 23.550781 194.832031 23.394531 194.941406 C 23.234375 195.046875 23.144531 195.222656 23.144531 195.417969 C 23.144531 195.523438 23.160156 195.566406 23.171875 195.628906 C 23.21875 195.84375 23.3125 196.15625 23.433594 196.574219 C 23.617188 197.195312 23.863281 198.011719 24.058594 198.808594 C 24.257812 199.597656 24.402344 200.378906 24.398438 200.835938 C 24.402344 201.015625 24.371094 201.144531 24.363281 201.15625 L 24.402344 201.175781 L 24.367188 201.152344 L 24.363281 201.15625 L 24.402344 201.175781 L 24.367188 201.152344 L 24.585938 201.292969 L 24.546875 201.039062 L 24.367188 201.152344 L 24.585938 201.292969 L 24.546875 201.039062 L 24.550781 201.039062 L 24.464844 201.050781 L 24.371094 201.03125 C 24.363281 201.023438 24.324219 200.980469 24.285156 200.863281 L 23.734375 201.03125 L 24.289062 200.875 L 22.605469 195.105469 C 22.53125 194.859375 22.308594 194.691406 22.050781 194.691406 L 21.824219 194.691406 C 21.574219 194.691406 21.351562 194.855469 21.277344 195.09375 L 21.25 195.285156 C 21.253906 195.441406 21.273438 195.503906 21.300781 195.625 C 21.390625 196.019531 21.589844 196.722656 21.773438 197.5 C 21.953125 198.273438 22.109375 199.121094 22.105469 199.667969 C 22.109375 199.886719 22.078125 200.058594 22.050781 200.121094 L 22.042969 200.144531 L 22.128906 200.199219 L 22.066406 200.117188 L 22.042969 200.144531 L 22.128906 200.199219 L 22.066406 200.117188 L 22.183594 200.265625 L 22.140625 200.082031 L 22.066406 200.117188 L 22.183594 200.265625 L 22.140625 200.082031 L 22.128906 200.085938 L 22.132812 200.101562 L 22.132812 200.085938 L 22.128906 200.085938 L 22.132812 200.101562 L 22.132812 200.085938 L 22.132812 200.222656 L 22.195312 200.105469 L 22.132812 200.085938 L 22.132812 200.222656 L 22.195312 200.105469 L 22.148438 200.179688 L 22.207031 200.113281 L 22.195312 200.105469 L 22.148438 200.179688 L 22.207031 200.113281 L 22.191406 200.089844 C 22.144531 200.035156 22.058594 199.863281 21.972656 199.582031 C 21.824219 199.085938 21.53125 198.121094 21.277344 197.265625 C 21.148438 196.84375 21.035156 196.441406 20.949219 196.152344 C 20.902344 196.007812 20.867188 195.886719 20.84375 195.804688 L 20.816406 195.710938 L 20.8125 195.695312 L 20.492188 195.773438 L 20.816406 195.707031 L 20.8125 195.695312 L 20.492188 195.773438 L 20.816406 195.707031 L 20.277344 195.816406 L 20.824219 195.796875 L 20.816406 195.707031 L 20.277344 195.816406 L 20.824219 195.796875 L 20.792969 195.628906 C 20.792969 195.628906 20.652344 195.214844 20.480469 194.707031 C 20.3125 194.199219 20.125 193.59375 20.046875 193.257812 L 19.484375 193.386719 L 18.925781 193.519531 C 19.121094 194.335938 19.703125 195.996094 19.703125 196.011719 L 20.25 195.816406 L 19.671875 195.84375 L 19.6875 195.945312 L 19.746094 196.152344 C 19.933594 196.808594 20.613281 199.066406 20.871094 199.910156 C 20.980469 200.261719 21.085938 200.546875 21.277344 200.792969 C 21.367188 200.914062 21.488281 201.03125 21.636719 201.113281 C 21.789062 201.199219 21.964844 201.238281 22.132812 201.238281 L 22.402344 201.207031 C 22.585938 201.160156 22.753906 201.0625 22.875 200.9375 C 23.058594 200.746094 23.140625 200.53125 23.191406 200.324219 C 23.246094 200.113281 23.257812 199.894531 23.257812 199.667969 C 23.257812 198.828125 23.027344 197.792969 22.8125 196.902344 C 22.703125 196.457031 22.597656 196.050781 22.515625 195.746094 C 22.480469 195.59375 22.441406 195.460938 22.425781 195.371094 L 22.402344 195.269531 L 22.398438 195.25 L 22.117188 195.285156 L 22.402344 195.285156 L 22.398438 195.25 L 22.117188 195.285156 L 22.402344 195.285156 L 21.882812 195.285156 L 22.375 195.441406 L 22.402344 195.285156 L 21.882812 195.285156 L 22.375 195.441406 L 21.824219 195.269531 L 21.824219 195.84375 L 22.050781 195.84375 L 22.050781 195.269531 L 21.496094 195.425781 L 23.179688 201.191406 L 23.1875 201.203125 C 23.265625 201.472656 23.410156 201.726562 23.640625 201.921875 C 23.875 202.109375 24.175781 202.199219 24.464844 202.199219 L 24.722656 202.179688 L 24.726562 202.179688 C 24.894531 202.15625 25.0625 202.070312 25.179688 201.957031 C 25.367188 201.785156 25.441406 201.589844 25.492188 201.402344 C 25.535156 201.21875 25.550781 201.035156 25.550781 200.835938 C 25.546875 199.90625 25.21875 198.632812 24.902344 197.496094 C 24.746094 196.929688 24.585938 196.40625 24.46875 196.011719 C 24.410156 195.8125 24.363281 195.648438 24.328125 195.523438 L 24.296875 195.390625 L 24.292969 195.371094 L 23.984375 195.417969 L 24.296875 195.417969 L 24.292969 195.371094 L 23.984375 195.417969 L 24.296875 195.417969 L 23.722656 195.417969 L 23.511719 195.953125 L 23.710938 196.035156 L 23.925781 195.492188 L 23.375 195.679688 L 25.351562 201.570312 L 25.898438 201.390625 L 25.347656 201.558594 C 25.429688 201.824219 25.542969 202.078125 25.734375 202.308594 C 25.914062 202.535156 26.234375 202.734375 26.605469 202.730469 C 26.722656 202.730469 26.832031 202.714844 26.945312 202.683594 L 27.210938 202.601562 C 27.4375 202.535156 27.667969 202.386719 27.796875 202.179688 C 27.9375 201.964844 27.972656 201.746094 27.972656 201.558594 C 27.96875 201.289062 27.910156 201.054688 27.839844 200.820312 L 27.84375 200.824219 L 26.089844 194.882812 L 25.542969 195.042969 L 25.308594 195.570312 L 25.601562 195.699219 L 25.828125 195.175781 L 25.328125 195.457031 L 25.546875 195.335938 L 25.324219 195.445312 L 25.328125 195.457031 L 25.546875 195.335938 L 25.324219 195.445312 C 25.328125 195.453125 25.382812 195.589844 25.445312 195.757812 C 25.675781 196.375 26.121094 197.644531 26.589844 198.78125 C 26.824219 199.351562 27.066406 199.894531 27.296875 200.316406 C 27.414062 200.53125 27.53125 200.714844 27.65625 200.878906 C 27.796875 201.03125 27.914062 201.203125 28.242188 201.292969 C 28.371094 201.320312 28.488281 201.332031 28.605469 201.332031 C 29.003906 201.339844 29.402344 201.125 29.585938 200.832031 C 29.773438 200.546875 29.820312 200.253906 29.820312 199.988281 C 29.820312 199.789062 29.792969 199.609375 29.742188 199.4375 L 29.738281 199.425781 L 27.710938 193.378906 L 27.164062 193.5625 L 26.917969 194.085938 L 27.417969 194.320312 L 27.667969 193.796875 L 27.234375 194.175781 C 27.234375 194.179688 27.433594 194.40625 27.667969 194.671875 C 27.902344 194.941406 28.167969 195.246094 28.289062 195.390625 L 28.289062 195.394531 C 28.433594 195.566406 28.59375 195.722656 28.789062 195.84375 C 28.976562 195.964844 29.210938 196.054688 29.476562 196.054688 C 29.714844 196.058594 29.964844 195.976562 30.15625 195.832031 L 30.167969 195.820312 L 30.3125 195.714844 L 30.3125 195.710938 C 30.628906 195.460938 30.757812 195.089844 30.753906 194.757812 C 30.753906 194.414062 30.636719 194.082031 30.414062 193.796875 L 29.964844 194.148438 L 30.433594 193.820312 C 30.433594 193.816406 29.96875 193.164062 29.386719 192.394531 C 28.796875 191.621094 28.109375 190.75 27.574219 190.246094 C 27.253906 189.941406 26.621094 189.3125 26.027344 188.75 C 25.730469 188.472656 25.445312 188.210938 25.199219 188.007812 C 25.074219 187.90625 24.960938 187.820312 24.84375 187.746094 L 24.660156 187.644531 C 24.585938 187.613281 24.503906 187.578125 24.347656 187.574219 L 24.347656 188.148438 L 24.898438 187.980469 L 24.101562 185.351562 C 24.003906 185.050781 23.6875 184.875 23.378906 184.96875 L 18.679688 186.390625 C 18.535156 186.433594 18.410156 186.535156 18.339844 186.671875 C 18.269531 186.808594 18.25 186.964844 18.296875 187.113281 L 19.121094 189.753906 L 19.671875 189.582031 L 19.421875 189.066406 C 19.25 189.152344 19.167969 189.265625 19.105469 189.355469 C 19.007812 189.515625 18.960938 189.660156 18.921875 189.820312 C 18.804688 190.308594 18.753906 190.960938 18.753906 191.648438 C 18.753906 192.316406 18.804688 192.996094 18.925781 193.519531 L 19.484375 193.386719 " fill-opacity="1" fill-rule="nonzero"/><path fill="#ffffff" d="M 22.804688 121.96875 C 22.804688 121.96875 23.867188 118.378906 27.324219 118.867188 C 31.359375 119.441406 30.976562 122.839844 30.976562 122.839844 L 20.789062 155.996094 L 26.125 188.433594 L 18.128906 190.535156 L 11.851562 155.402344 L 22.804688 121.96875 " fill-opacity="1" fill-rule="nonzero"/><path fill="#0b132b" d="M 22.804688 121.96875 L 23.351562 122.128906 L 23.363281 122.113281 C 23.402344 121.976562 23.664062 121.261719 24.199219 120.613281 C 24.746094 119.964844 25.511719 119.402344 26.691406 119.398438 C 26.867188 119.398438 27.046875 119.414062 27.238281 119.441406 C 28.804688 119.667969 29.53125 120.300781 29.941406 120.933594 C 30.351562 121.578125 30.414062 122.28125 30.410156 122.605469 L 30.410156 122.746094 L 30.40625 122.777344 L 30.976562 122.839844 L 30.429688 122.675781 L 20.242188 155.828125 L 20.222656 156.089844 L 25.472656 188.007812 L 18.582031 189.820312 L 12.441406 155.441406 L 23.347656 122.148438 L 23.351562 122.128906 L 22.804688 121.96875 L 22.253906 121.789062 L 11.300781 155.222656 L 11.28125 155.5 L 17.554688 190.640625 C 17.589844 190.796875 17.683594 190.9375 17.816406 191.023438 C 17.953125 191.109375 18.121094 191.136719 18.273438 191.09375 L 26.277344 188.988281 C 26.5625 188.914062 26.742188 188.632812 26.695312 188.335938 L 21.378906 156.035156 L 31.53125 123.011719 L 31.554688 122.90625 C 31.554688 122.890625 31.5625 122.78125 31.5625 122.605469 C 31.5625 122.15625 31.492188 121.234375 30.914062 120.320312 C 30.34375 119.398438 29.234375 118.550781 27.402344 118.296875 C 27.15625 118.261719 26.917969 118.246094 26.691406 118.246094 C 24.992188 118.242188 23.839844 119.175781 23.179688 120.042969 C 22.511719 120.917969 22.261719 121.765625 22.25 121.800781 L 22.804688 121.96875 L 22.253906 121.789062 L 22.804688 121.96875 " fill-opacity="1" fill-rule="nonzero"/><path fill="#0b132b" d="M 99.023438 300.753906 L 64.328125 300.753906 L 64.328125 290.167969 L 99.023438 290.167969 L 99.023438 300.753906 " fill-opacity="1" fill-rule="nonzero"/><g clip-path="url(#7ab94a14ee)"><path fill="#0b132b" d="M 99.023438 300.753906 L 99.023438 300.179688 L 64.902344 300.179688 L 64.902344 290.746094 L 98.445312 290.746094 L 98.445312 300.753906 L 99.023438 300.753906 L 99.023438 300.179688 L 99.023438 300.753906 L 99.597656 300.753906 L 99.597656 290.167969 C 99.597656 290.015625 99.539062 289.871094 99.433594 289.765625 C 99.320312 289.65625 99.175781 289.59375 99.023438 289.59375 L 64.328125 289.59375 C 64.171875 289.59375 64.023438 289.65625 63.917969 289.765625 C 63.8125 289.867188 63.75 290.015625 63.75 290.167969 L 63.75 300.753906 C 63.75 300.910156 63.808594 301.054688 63.917969 301.164062 C 64.03125 301.269531 64.171875 301.328125 64.328125 301.328125 L 99.023438 301.328125 C 99.175781 301.328125 99.320312 301.269531 99.433594 301.164062 C 99.539062 301.054688 99.597656 300.910156 99.597656 300.753906 L 99.023438 300.753906 " fill-opacity="1" fill-rule="nonzero"/></g><path fill="#0b132b" d="M 133.714844 290.167969 L 99.023438 290.167969 L 99.023438 279.585938 L 133.714844 279.585938 L 133.714844 290.167969 " fill-opacity="1" fill-rule="nonzero"/><path fill="#0b132b" d="M 133.714844 290.167969 L 133.714844 289.59375 L 99.597656 289.59375 L 99.597656 280.160156 L 133.136719 280.160156 L 133.136719 290.167969 L 133.714844 290.167969 L 133.714844 289.59375 L 133.714844 290.167969 L 134.292969 290.167969 L 134.292969 279.585938 C 134.292969 279.433594 134.234375 279.289062 134.125 279.179688 C 134.015625 279.070312 133.871094 279.011719 133.714844 279.011719 L 99.023438 279.011719 C 98.871094 279.011719 98.722656 279.074219 98.617188 279.179688 C 98.507812 279.289062 98.445312 279.4375 98.445312 279.585938 L 98.445312 290.167969 C 98.445312 290.324219 98.503906 290.472656 98.617188 290.578125 C 98.726562 290.6875 98.871094 290.746094 99.023438 290.746094 L 133.714844 290.746094 C 133.871094 290.746094 134.015625 290.6875 134.125 290.578125 C 134.234375 290.472656 134.292969 290.324219 134.292969 290.167969 L 133.714844 290.167969 " fill-opacity="1" fill-rule="nonzero"/><path fill="#0b132b" d="M 168.414062 279.585938 L 133.714844 279.585938 L 133.714844 269 L 168.414062 269 L 168.414062 279.585938 " fill-opacity="1" fill-rule="nonzero"/><path fill="#0b132b" d="M 168.414062 279.585938 L 168.414062 279.011719 L 134.292969 279.011719 L 134.292969 269.578125 L 167.839844 269.578125 L 167.839844 279.585938 L 168.414062 279.585938 L 168.414062 279.011719 L 168.414062 279.585938 L 168.992188 279.585938 L 168.992188 269 C 168.992188 268.847656 168.929688 268.699219 168.820312 268.59375 C 168.710938 268.484375 168.570312 268.425781 168.414062 268.425781 L 133.714844 268.425781 C 133.5625 268.425781 133.417969 268.484375 133.308594 268.59375 C 133.203125 268.699219 133.136719 268.847656 133.136719 269 L 133.136719 279.585938 C 133.136719 279.738281 133.203125 279.882812 133.308594 279.996094 C 133.417969 280.101562 133.5625 280.160156 133.714844 280.160156 L 168.414062 280.160156 C 168.570312 280.160156 168.710938 280.101562 168.820312 279.996094 C 168.929688 279.882812 168.992188 279.738281 168.992188 279.585938 L 168.414062 279.585938 " fill-opacity="1" fill-rule="nonzero"/><path fill="#0b132b" d="M 203.105469 269 L 168.414062 269 L 168.414062 258.417969 L 203.105469 258.417969 L 203.105469 269 " fill-opacity="1" fill-rule="nonzero"/><path fill="#0b132b" d="M 203.105469 269 L 203.105469 268.425781 L 168.992188 268.425781 L 168.992188 258.992188 L 202.53125 258.992188 L 202.53125 269 L 203.105469 269 L 203.105469 268.425781 L 203.105469 269 L 203.683594 269 L 203.683594 258.417969 C 203.683594 258.265625 203.625 258.121094 203.511719 258.007812 C 203.402344 257.902344 203.261719 257.84375 203.105469 257.84375 L 168.414062 257.84375 C 168.261719 257.84375 168.113281 257.902344 168.003906 258.007812 C 167.898438 258.117188 167.839844 258.265625 167.839844 258.417969 L 167.839844 269 C 167.839844 269.15625 167.898438 269.296875 168.003906 269.40625 C 168.113281 269.515625 168.257812 269.578125 168.414062 269.578125 L 203.105469 269.578125 C 203.261719 269.578125 203.402344 269.515625 203.511719 269.40625 C 203.625 269.296875 203.683594 269.15625 203.683594 269 L 203.105469 269 " fill-opacity="1" fill-rule="nonzero"/><path fill="#0b132b" d="M 237.804688 258.417969 L 203.105469 258.417969 L 203.105469 247.828125 L 237.804688 247.828125 L 237.804688 258.417969 " fill-opacity="1" fill-rule="nonzero"/><path fill="#0b132b" d="M 237.804688 258.417969 L 237.804688 257.84375 L 203.683594 257.84375 L 203.683594 248.40625 L 237.226562 248.40625 L 237.226562 258.417969 L 237.804688 258.417969 L 237.804688 257.84375 L 237.804688 258.417969 L 238.378906 258.417969 L 238.378906 247.828125 C 238.378906 247.675781 238.320312 247.53125 238.214844 247.425781 C 238.101562 247.316406 237.957031 247.253906 237.804688 247.253906 L 203.105469 247.253906 C 202.953125 247.253906 202.804688 247.316406 202.695312 247.425781 C 202.589844 247.53125 202.53125 247.679688 202.53125 247.828125 L 202.53125 258.417969 C 202.53125 258.570312 202.589844 258.714844 202.695312 258.824219 C 202.804688 258.933594 202.953125 258.992188 203.105469 258.992188 L 237.804688 258.992188 C 237.957031 258.992188 238.101562 258.933594 238.214844 258.824219 C 238.320312 258.714844 238.378906 258.570312 238.378906 258.417969 L 237.804688 258.417969 " fill-opacity="1" fill-rule="nonzero"/><path fill="#0b132b" d="M 272.496094 247.828125 L 237.804688 247.828125 L 237.804688 237.246094 L 272.496094 237.246094 L 272.496094 247.828125 " fill-opacity="1" fill-rule="nonzero"/><path fill="#0b132b" d="M 272.496094 247.828125 L 272.496094 247.253906 L 238.378906 247.253906 L 238.378906 237.820312 L 271.917969 237.820312 L 271.917969 247.828125 L 272.496094 247.828125 L 272.496094 247.253906 L 272.496094 247.828125 L 273.070312 247.828125 L 273.070312 237.246094 C 273.070312 237.09375 273.011719 236.949219 272.90625 236.839844 C 272.796875 236.730469 272.652344 236.667969 272.496094 236.667969 L 237.804688 236.667969 C 237.648438 236.667969 237.5 236.730469 237.398438 236.839844 C 237.289062 236.945312 237.226562 237.09375 237.226562 237.246094 L 237.226562 247.828125 C 237.226562 247.988281 237.285156 248.128906 237.398438 248.238281 C 237.507812 248.347656 237.648438 248.40625 237.804688 248.40625 L 272.496094 248.40625 C 272.652344 248.40625 272.796875 248.347656 272.90625 248.238281 C 273.011719 248.128906 273.070312 247.988281 273.070312 247.828125 L 272.496094 247.828125 " fill-opacity="1" fill-rule="nonzero"/><path fill="#0b132b" d="M 356.070312 247.828125 L 272.496094 247.828125 L 272.496094 221.019531 L 356.070312 221.019531 L 356.070312 247.828125 " fill-opacity="1" fill-rule="nonzero"/><path fill="#0b132b" d="M 356.070312 247.828125 L 356.070312 247.253906 L 273.070312 247.253906 L 273.070312 221.597656 L 355.492188 221.597656 L 355.492188 247.828125 L 356.070312 247.828125 L 356.070312 247.253906 L 356.070312 247.828125 L 356.640625 247.828125 L 356.640625 221.019531 C 356.640625 220.867188 356.582031 220.722656 356.472656 220.617188 C 356.367188 220.507812 356.222656 220.445312 356.070312 220.445312 L 272.496094 220.445312 C 272.347656 220.445312 272.199219 220.507812 272.089844 220.617188 C 271.980469 220.722656 271.917969 220.867188 271.917969 221.019531 L 271.917969 247.828125 C 271.917969 247.988281 271.980469 248.128906 272.089844 248.238281 C 272.199219 248.347656 272.339844 248.40625 272.496094 248.40625 L 356.070312 248.40625 C 356.222656 248.40625 356.367188 248.347656 356.472656 248.238281 C 356.582031 248.128906 356.640625 247.988281 356.640625 247.828125 L 356.070312 247.828125 " fill-opacity="1" fill-rule="nonzero"/></svg>