<svg xmlns="http://www.w3.org/2000/svg" xmlns:xlink="http://www.w3.org/1999/xlink" width="500" zoomAndPan="magnify" viewBox="0 0 375 374.999991" height="500" preserveAspectRatio="xMidYMid meet" version="1.0"><path fill="#ffffff" d="M 183.179688 105.136719 L 167.851562 105.136719 C 167.132812 105 166.386719 104.917969 165.628906 104.917969 C 161.4375 104.917969 157.105469 106.699219 150.78125 110.136719 C 148.496094 111.378906 145.957031 112.832031 143.066406 114.503906 C 142.703125 114.710938 142.320312 114.929688 141.921875 115.164062 C 146.289062 107.84375 152.988281 97.5 163.269531 82.949219 C 165.777344 79.402344 157.832031 72.078125 151.347656 69.417969 C 156.359375 63.640625 162.34375 63.847656 162.738281 63.871094 C 164.683594 64.003906 166.429688 62.523438 166.578125 60.542969 C 166.730469 58.558594 165.242188 56.820312 163.257812 56.667969 C 157.34375 56.226562 144.847656 59.738281 139.679688 76.273438 C 139.664062 76.324219 139.660156 76.375 139.648438 76.425781 C 128.71875 92.191406 121.132812 104.296875 116.542969 113.285156 C 113.269531 119.703125 106.460938 133.050781 114.523438 141.90625 C 117.621094 145.300781 121.230469 146.691406 125.269531 146.691406 C 130.636719 146.691406 136.769531 144.230469 143.4375 140.757812 C 147.011719 138.894531 150.742188 136.746094 154.597656 134.519531 C 154.617188 134.507812 154.640625 134.492188 154.660156 134.480469 L 154.660156 356.609375 C 154.660156 366.472656 162.648438 374.464844 172.496094 374.464844 C 182.347656 374.464844 190.332031 366.472656 190.332031 356.609375 L 190.332031 226.234375 L 197.019531 226.234375 L 197.019531 356.609375 C 197.019531 366.472656 205.007812 374.464844 214.855469 374.464844 C 224.703125 374.464844 232.691406 366.472656 232.691406 356.609375 L 232.691406 139.933594 C 239.140625 153.359375 244.886719 180.414062 241.917969 231.160156 C 241.589844 236.78125 245.339844 241.695312 250.597656 243.03125 L 250.597656 248.738281 L 240.617188 248.738281 L 240.617188 306.988281 L 267.066406 306.988281 L 267.066406 248.738281 L 257.085938 248.738281 L 257.085938 242.789062 C 261.429688 241.335938 264.675781 237.367188 264.960938 232.507812 C 268.527344 171.496094 260.902344 131.6875 242.304688 114.191406 C 234.210938 106.578125 226.300781 105.269531 222.242188 105.171875 C 222.007812 105.15625 221.777344 105.136719 221.542969 105.136719 L 213.546875 105.136719 C 208.933594 107.308594 203.789062 108.535156 198.363281 108.535156 C 192.9375 108.535156 187.792969 107.3125 183.179688 105.136719 Z M 193.675781 212.269531 L 179.972656 194.9375 L 187.867188 136.707031 C 189.738281 137.40625 191.707031 137.773438 193.675781 137.773438 L 193.679688 137.773438 C 193.679688 137.773438 193.683594 137.773438 193.6875 137.773438 C 195.652344 137.773438 197.617188 137.40625 199.488281 136.703125 L 207.382812 194.9375 Z M 201.898438 129.949219 L 201.484375 130.605469 C 199.222656 132.492188 196.457031 133.4375 193.675781 133.441406 C 190.894531 133.4375 188.132812 132.496094 185.875 130.613281 L 185.453125 129.949219 L 188.195312 119.117188 L 199.15625 119.117188 Z M 201.898438 129.949219 " fill-opacity="1" fill-rule="nonzero"/><path fill="#ffffff" d="M 169.886719 60.792969 C 169.714844 63.082031 168.414062 65.046875 166.566406 66.175781 C 166.136719 68.289062 165.910156 70.476562 165.910156 72.71875 C 165.910156 74.691406 166.09375 76.621094 166.429688 78.496094 C 166.546875 78.777344 166.671875 79.0625 166.753906 79.339844 C 166.933594 79.960938 167.003906 80.570312 167.023438 81.171875 C 170.742188 95.015625 183.363281 105.210938 198.367188 105.210938 C 216.292969 105.210938 230.824219 90.664062 230.824219 72.714844 C 230.824219 54.769531 216.292969 40.222656 198.367188 40.222656 C 185.769531 40.222656 174.859375 47.410156 169.476562 57.90625 C 169.804688 58.804688 169.964844 59.78125 169.886719 60.792969 Z M 212.453125 58.703125 C 215.242188 58.703125 217.503906 60.964844 217.503906 63.757812 C 217.503906 66.550781 215.242188 68.8125 212.453125 68.8125 C 209.664062 68.8125 207.40625 66.550781 207.40625 63.757812 C 207.40625 60.964844 209.664062 58.703125 212.453125 58.703125 Z M 191.808594 64.179688 C 195.144531 64.179688 197.847656 66.886719 197.847656 70.226562 C 197.847656 73.570312 195.144531 76.277344 191.808594 76.277344 C 188.472656 76.277344 185.765625 73.570312 185.765625 70.226562 C 185.765625 66.886719 188.472656 64.179688 191.808594 64.179688 Z M 191.808594 64.179688 " fill-opacity="1" fill-rule="nonzero"/><path fill="#ffffff" d="M 160.921875 53.171875 C 160.929688 53.15625 161.855469 51.296875 163.699219 50.703125 C 164.878906 50.324219 166.226562 50.527344 167.695312 51.316406 C 168.152344 51.558594 168.710938 51.386719 168.953125 50.933594 C 169.195312 50.480469 169.023438 49.917969 168.570312 49.675781 C 166.628906 48.636719 164.789062 48.390625 163.105469 48.941406 C 160.503906 49.792969 159.296875 52.261719 159.246094 52.367188 C 159.046875 52.777344 159.195312 53.25 159.550781 53.503906 C 159.960938 53.453125 160.371094 53.398438 160.769531 53.371094 C 160.828125 53.308594 160.882812 53.25 160.921875 53.171875 Z M 160.921875 53.171875 " fill-opacity="1" fill-rule="nonzero"/><path fill="#ffffff" d="M 162.082031 44.398438 C 158.25 45.460938 156.335938 48.894531 156.257812 49.042969 C 156.011719 49.492188 156.175781 50.054688 156.625 50.300781 C 156.667969 50.324219 156.714844 50.34375 156.761719 50.363281 C 157.179688 50.511719 157.660156 50.339844 157.882812 49.9375 C 157.898438 49.90625 159.523438 47.03125 162.59375 46.1875 C 164.605469 45.636719 166.828125 46.058594 169.207031 47.453125 C 169.644531 47.707031 170.214844 47.5625 170.476562 47.121094 C 170.734375 46.675781 170.585938 46.109375 170.144531 45.847656 C 167.3125 44.191406 164.597656 43.699219 162.082031 44.398438 Z M 162.082031 44.398438 " fill-opacity="1" fill-rule="nonzero"/><path fill="#ffffff" d="M 221.285156 22.902344 C 222.074219 19.59375 222.757812 19.089844 226.113281 17.734375 C 230.3125 16.066406 232.308594 13.921875 233.171875 10.328125 C 233.972656 6.972656 232.691406 2.65625 226.332031 1.132812 C 223.269531 0.398438 219.699219 0.523438 217.527344 1.027344 L 215.957031 7.589844 L 220.574219 9.109375 L 221.269531 6.191406 C 221.445312 5.464844 221.621094 5.144531 222.238281 5.140625 C 222.96875 5.109375 223.839844 5.316406 224.8125 5.550781 C 226.753906 6.015625 228.027344 7.347656 227.492188 9.585938 C 226.820312 12.40625 224.984375 12.996094 222.523438 14.050781 C 219.101562 15.492188 217.394531 16.625 216.804688 20.59375 L 216.269531 24.324219 L 220.6875 25.382812 Z M 221.285156 22.902344 " fill-opacity="1" fill-rule="nonzero"/><path fill="#ffffff" d="M 213.886719 30.226562 C 213.445312 32.074219 214.320312 33.777344 216.460938 34.289062 C 218.546875 34.789062 220.132812 33.523438 220.539062 31.820312 C 220.96875 30.023438 220.03125 28.359375 217.894531 27.847656 C 216 27.394531 214.28125 28.574219 213.886719 30.226562 Z M 213.886719 30.226562 " fill-opacity="1" fill-rule="nonzero"/><path fill="#ffffff" d="M 233.75 34.984375 C 233.308594 36.832031 234.183594 38.53125 236.320312 39.042969 C 238.40625 39.542969 239.996094 38.28125 240.402344 36.574219 C 240.832031 34.777344 239.894531 33.113281 237.757812 32.601562 C 235.863281 32.148438 234.140625 33.332031 233.75 34.984375 Z M 233.75 34.984375 " fill-opacity="1" fill-rule="nonzero"/><path fill="#ffffff" d="M 241.144531 27.65625 C 241.933594 24.351562 242.621094 23.847656 245.972656 22.492188 C 250.171875 20.824219 252.171875 18.679688 253.03125 15.082031 C 253.832031 11.726562 252.554688 7.414062 246.195312 5.890625 C 243.132812 5.15625 239.5625 5.277344 237.386719 5.785156 L 235.820312 12.347656 L 240.4375 13.867188 L 241.132812 10.949219 C 241.308594 10.21875 241.484375 9.902344 242.101562 9.898438 C 242.828125 9.863281 243.703125 10.074219 244.675781 10.304688 C 246.617188 10.769531 247.890625 12.105469 247.355469 14.34375 C 246.679688 17.160156 244.847656 17.75 242.386719 18.804688 C 238.964844 20.246094 237.253906 21.378906 236.664062 25.351562 L 236.132812 29.078125 L 240.550781 30.136719 Z M 241.144531 27.65625 " fill-opacity="1" fill-rule="nonzero"/></svg>